<?xml version="1.0" encoding="UTF-8"?>
<!DOCTYPE svg PUBLIC "-//W3C//DTD SVG 1.1//EN" "http://www.w3.org/Graphics/SVG/1.1/DTD/svg11.dtd">
<svg xmlns="http://www.w3.org/2000/svg" version="1.1" width="880px" height="660px" style="shape-rendering:geometricPrecision; text-rendering:geometricPrecision; image-rendering:optimizeQuality; fill-rule:evenodd; clip-rule:evenodd" xmlns:xlink="http://www.w3.org/1999/xlink">
<g><path style="opacity:1" fill="#3e7652" d="M 595.5,113.5 C 596.552,113.351 597.552,113.517 598.5,114C 597.67,152.429 597.17,190.929 597,229.5C 573.146,240.698 552.813,256.364 536,276.5C 526.154,290.194 518.987,305.194 514.5,321.5C 477.167,321.5 439.833,321.5 402.5,321.5C 412.037,280.18 430.537,243.513 458,211.5C 485.42,181.723 516.587,156.89 551.5,137C 566.069,128.883 580.736,121.05 595.5,113.5 Z"/></g>
<g><path style="opacity:1" fill="#3f7652" d="M 555.5,121.5 C 557.048,121.821 557.715,122.821 557.5,124.5C 505.486,147.005 462.819,181.172 429.5,227C 381.167,227.667 332.833,227.667 284.5,227C 283.504,192.24 283.171,157.406 283.5,122.5C 374.335,122.833 465.002,122.499 555.5,121.5 Z"/></g>
<g><path style="opacity:0.999" fill="#689679" d="M 275.5,332.5 C 289.837,332.333 304.171,332.5 318.5,333C 319.475,338.741 319.808,344.575 319.5,350.5C 313.5,350.5 307.5,350.5 301.5,350.5C 301.5,355.167 301.5,359.833 301.5,364.5C 307.5,364.5 313.5,364.5 319.5,364.5C 319.5,370.167 319.5,375.833 319.5,381.5C 313.5,381.5 307.5,381.5 301.5,381.5C 301.5,385.833 301.5,390.167 301.5,394.5C 307.5,394.5 313.5,394.5 319.5,394.5C 319.5,400.167 319.5,405.833 319.5,411.5C 304.496,411.667 289.496,411.5 274.5,411C 275.495,384.908 275.828,358.741 275.5,332.5 Z"/></g>
<g><path style="opacity:0.998" fill="#689679" d="M 329.5,332.5 C 337.752,332.184 345.919,332.518 354,333.5C 354.826,353.74 354.659,373.906 353.5,394C 359.825,394.5 366.158,394.666 372.5,394.5C 372.5,400.167 372.5,405.833 372.5,411.5C 358.167,411.5 343.833,411.5 329.5,411.5C 329.5,385.167 329.5,358.833 329.5,332.5 Z"/></g>
<g><path style="opacity:0.999" fill="#689679" d="M 377.5,332.5 C 391.833,332.5 406.167,332.5 420.5,332.5C 420.5,338.5 420.5,344.5 420.5,350.5C 414.833,350.5 409.167,350.5 403.5,350.5C 403.5,355.167 403.5,359.833 403.5,364.5C 409.167,364.5 414.833,364.5 420.5,364.5C 420.5,370.167 420.5,375.833 420.5,381.5C 414.833,381.5 409.167,381.5 403.5,381.5C 403.5,385.833 403.5,390.167 403.5,394.5C 409.167,394.5 414.833,394.5 420.5,394.5C 420.5,400.167 420.5,405.833 420.5,411.5C 406.167,411.5 391.833,411.5 377.5,411.5C 377.5,385.167 377.5,358.833 377.5,332.5 Z"/></g>
<g><path style="opacity:0.995" fill="#689679" d="M 425.5,332.5 C 432.5,332.5 439.5,332.5 446.5,332.5C 449.452,346.874 452.618,361.207 456,375.5C 459.158,360.845 462.325,346.512 465.5,332.5C 471.5,332.5 477.5,332.5 483.5,332.5C 478.824,358.886 473.824,385.219 468.5,411.5C 458.251,411.819 448.084,411.486 438,410.5C 434.816,391.26 431.649,372.093 428.5,353C 427.045,346.228 426.045,339.395 425.5,332.5 Z"/></g>
<g><path style="opacity:0.998" fill="#689679" d="M 488.5,332.5 C 503.5,332.5 518.5,332.5 533.5,332.5C 533.5,338.5 533.5,344.5 533.5,350.5C 526.833,350.5 520.167,350.5 513.5,350.5C 514.314,355.119 514.647,359.786 514.5,364.5C 520.833,364.5 527.167,364.5 533.5,364.5C 533.5,370.167 533.5,375.833 533.5,381.5C 527.167,381.5 520.833,381.5 514.5,381.5C 514.5,385.5 514.5,389.5 514.5,393.5C 520.833,393.5 527.167,393.5 533.5,393.5C 533.5,399.5 533.5,405.5 533.5,411.5C 518.167,411.5 502.833,411.5 487.5,411.5C 487.176,385.092 487.51,358.759 488.5,332.5 Z"/></g>
<g><path style="opacity:1" fill="#689779" d="M 543.5,332.5 C 550.841,332.334 558.174,332.5 565.5,333C 566.227,334.399 566.727,335.899 567,337.5C 577.029,332.344 587.196,332.177 597.5,337C 601.49,338.99 603.99,342.157 605,346.5C 605.5,368.164 605.667,389.831 605.5,411.5C 596.833,411.5 588.167,411.5 579.5,411.5C 579.667,392.83 579.5,374.164 579,355.5C 576.947,351.708 573.781,350.542 569.5,352C 568.333,352.5 567.5,353.333 567,354.5C 566.5,373.497 566.333,392.497 566.5,411.5C 558.833,411.5 551.167,411.5 543.5,411.5C 543.5,385.167 543.5,358.833 543.5,332.5 Z"/></g>
<g><path style="opacity:1" fill="#3e7652" d="M 386.5,419.5 C 425.833,419.5 465.167,419.5 504.5,419.5C 501.904,462.781 500.904,506.115 501.5,549.5C 461.167,549.5 420.833,549.5 380.5,549.5C 380.352,522.808 381.019,496.142 382.5,469.5C 381.656,465.676 381.99,461.843 383.5,458C 383.167,456.333 382.833,454.667 382.5,453C 383.909,441.869 385.242,430.702 386.5,419.5 Z"/></g>
<g><path style="opacity:0.985" fill="#68977a" d="M 530.5,422.5 C 547.77,423.393 553.937,432.059 549,448.5C 541.821,457.303 533.321,458.803 523.5,453C 513.68,440.011 516.013,429.844 530.5,422.5 Z M 542.5,448.5 C 541.874,445.685 540.54,443.185 538.5,441C 541.379,439.334 542.212,436.834 541,433.5C 540.097,432.299 538.931,431.465 537.5,431C 534.183,430.502 530.85,430.335 527.5,430.5C 527.789,436.591 527.455,442.591 526.5,448.5C 521.372,442.748 521.205,436.748 526,430.5C 532.899,425.734 539.232,426.734 545,433.5C 547.393,439.144 546.56,444.144 542.5,448.5 Z M 531.5,435.5 C 533.604,435.201 535.604,435.534 537.5,436.5C 536.5,436.833 535.5,437.167 534.5,437.5C 532.97,437.36 531.97,436.693 531.5,435.5 Z M 542.5,448.5 C 538.68,451.323 534.347,452.156 529.5,451C 528.058,450.623 527.058,449.79 526.5,448.5C 528.5,448.5 530.5,448.5 532.5,448.5C 531.81,439.754 533.476,439.421 537.5,447.5C 539.045,448.452 540.712,448.785 542.5,448.5 Z"/></g>
<g><path style="opacity:0.984" fill="#6a987c" d="M 542.5,448.5 C 540.712,448.785 539.045,448.452 537.5,447.5C 533.476,439.421 531.81,439.754 532.5,448.5C 530.5,448.5 528.5,448.5 526.5,448.5C 527.455,442.591 527.789,436.591 527.5,430.5C 530.85,430.335 534.183,430.502 537.5,431C 538.931,431.465 540.097,432.299 541,433.5C 542.212,436.834 541.379,439.334 538.5,441C 540.54,443.185 541.874,445.685 542.5,448.5 Z M 531.5,435.5 C 531.97,436.693 532.97,437.36 534.5,437.5C 535.5,437.167 536.5,436.833 537.5,436.5C 535.604,435.534 533.604,435.201 531.5,435.5 Z"/></g>
</svg>
