<?xml version="1.0" encoding="UTF-8"?>
<!DOCTYPE svg PUBLIC "-//W3C//DTD SVG 1.1//EN" "http://www.w3.org/Graphics/SVG/1.1/DTD/svg11.dtd">
<svg xmlns="http://www.w3.org/2000/svg" version="1.1" width="2400px" height="1082px" style="shape-rendering:geometricPrecision; text-rendering:geometricPrecision; image-rendering:optimizeQuality; fill-rule:evenodd; clip-rule:evenodd" xmlns:xlink="http://www.w3.org/1999/xlink">
<g><path style="opacity:1" fill="#689779" d="M 1304.5,66.5 C 1422.68,60.9607 1529.35,92.7941 1624.5,162C 1671.8,197.959 1707.97,242.792 1733,296.5C 1750.09,335.764 1757.59,376.764 1755.5,419.5C 1665.14,430.408 1578.14,418.242 1494.5,383C 1456,365.753 1418.67,346.42 1382.5,325C 1337.58,295.029 1290.58,268.363 1241.5,245C 1216.02,232.73 1189.35,224.063 1161.5,219C 1133.35,215.144 1105.69,217.477 1078.5,226C 1038.8,237.673 1003.8,257.34 973.5,285C 947.456,309.667 924.623,336.833 905,366.5C 894.042,383.582 883.208,400.749 872.5,418C 858.167,418.667 843.833,418.667 829.5,418C 877.584,317.242 946.251,233.242 1035.5,166C 1115.8,107.841 1205.47,74.6742 1304.5,66.5 Z"/></g>
<g><path style="opacity:1" fill="#3e7651" d="M 397.5,327.5 C 420.229,326.926 442.895,327.76 465.5,330C 539.001,340.792 572.501,383.292 566,457.5C 563.905,479.809 560.071,501.809 554.5,523.5C 513.505,524.5 472.505,524.833 431.5,524.5C 434.647,500.642 437.647,476.808 440.5,453C 439.691,447.583 439.191,442.083 439,436.5C 434.534,418.926 423.201,410.26 405,410.5C 387.109,410.779 372.443,417.779 361,431.5C 347.247,451.68 337.247,473.68 331,497.5C 311.291,573.047 295.291,649.38 283,726.5C 280.78,743.106 280.113,759.772 281,776.5C 284.444,804.604 300.277,817.104 328.5,814C 344.593,811.908 357.093,804.075 366,790.5C 375.189,774.784 382.189,758.117 387,740.5C 392.956,719.011 398.122,697.345 402.5,675.5C 444.172,675.167 485.839,675.5 527.5,676.5C 500.713,851.244 400.38,922.077 226.5,889C 185.892,878.393 161.392,852.56 153,811.5C 147.924,782.275 147.257,752.941 151,723.5C 159.831,644.011 176.831,566.344 202,490.5C 214.663,453.824 232.996,420.491 257,390.5C 284.303,360.091 318.136,340.924 358.5,333C 371.59,330.741 384.59,328.908 397.5,327.5 Z"/></g>
<g><path style="opacity:1" fill="#3e7651" d="M 1848.5,329.5 C 1890.17,329.5 1931.83,329.5 1973.5,329.5C 1936.32,511.882 1898.82,694.216 1861,876.5C 1819.39,878.491 1777.55,879.158 1735.5,878.5C 1772.78,695.424 1810.45,512.424 1848.5,329.5 Z"/></g>
<g><path style="opacity:1" fill="#3e7651" d="M 2047.5,329.5 C 2089.5,329.5 2131.5,329.5 2173.5,329.5C 2135.7,512.476 2098.04,695.476 2060.5,878.5C 2018.5,878.5 1976.5,878.5 1934.5,878.5C 1972.55,695.577 2010.22,512.577 2047.5,329.5 Z"/></g>
<g><path style="opacity:1" fill="#3e7651" d="M 2198.5,329.5 C 2211.52,329.168 2224.52,329.501 2237.5,330.5C 2236.65,332.409 2236.32,334.409 2236.5,336.5C 2231.17,336.5 2225.83,336.5 2220.5,336.5C 2217.07,353.499 2213.57,370.499 2210,387.5C 2207.89,389.291 2205.39,389.958 2202.5,389.5C 2205.83,371.837 2209.17,354.171 2212.5,336.5C 2207.46,336.827 2202.46,336.494 2197.5,335.5C 2198.35,333.591 2198.68,331.591 2198.5,329.5 Z"/></g>
<g><path style="opacity:1" fill="#3e7651" d="M 2243.5,329.5 C 2247.83,329.5 2252.17,329.5 2256.5,329.5C 2256.6,345.88 2257.43,362.213 2259,378.5C 2266.33,362.5 2273.67,346.5 2281,330.5C 2285.41,329.368 2289.91,329.201 2294.5,330C 2290.08,349.408 2285.92,368.908 2282,388.5C 2279.62,389.435 2277.12,389.768 2274.5,389.5C 2277.67,373.509 2280.5,357.509 2283,341.5C 2275.83,357.167 2268.67,372.833 2261.5,388.5C 2258.23,389.487 2254.9,389.82 2251.5,389.5C 2251.36,372.795 2250.53,356.129 2249,339.5C 2245.79,355.861 2242.46,372.194 2239,388.5C 2236.62,389.435 2234.12,389.768 2231.5,389.5C 2235.12,369.42 2239.12,349.42 2243.5,329.5 Z"/></g>
<g><path style="opacity:1" fill="#3e7651" d="M 747.5,455.5 C 772.978,454.676 798.311,456.176 823.5,460C 881.502,468.677 907.002,502.177 900,560.5C 898.311,573.945 895.978,587.278 893,600.5C 878.206,671.472 863.539,742.472 849,813.5C 845.935,829.023 844.101,844.69 843.5,860.5C 843.486,866.458 844.152,872.291 845.5,878C 805.501,878.5 765.501,878.667 725.5,878.5C 725.834,862.152 726.501,845.819 727.5,829.5C 725.801,829.34 724.134,829.506 722.5,830C 704.363,857.768 679.03,875.768 646.5,884C 620.169,891.3 593.835,891.3 567.5,884C 540.375,875.254 524.875,856.754 521,828.5C 518.114,787.929 526.114,749.596 545,713.5C 560.333,688.178 581.833,670.011 609.5,659C 622.227,653.869 635.227,649.536 648.5,646C 679.295,639.175 709.961,631.841 740.5,624C 763.3,615.601 777.133,599.434 782,575.5C 785.25,562.42 783.584,550.087 777,538.5C 771.436,532.466 764.602,528.633 756.5,527C 726.48,522.253 705.646,533.753 694,561.5C 691.367,568.368 689.2,575.368 687.5,582.5C 651.827,582.833 616.16,582.5 580.5,581.5C 600.693,511.147 647.026,470.314 719.5,459C 728.962,457.651 738.296,456.484 747.5,455.5 Z M 759.5,673.5 C 760.376,673.369 761.043,673.702 761.5,674.5C 756.733,697.501 751.9,720.501 747,743.5C 742.901,763.512 734.068,781.012 720.5,796C 702.419,811.108 682.752,813.774 661.5,804C 651.053,795.099 646.387,783.766 647.5,770C 647.764,744.855 656.431,723.188 673.5,705C 684.105,696.364 696.105,690.364 709.5,687C 723.436,683.413 737.436,680.079 751.5,677C 754.476,676.295 757.142,675.129 759.5,673.5 Z"/></g>
<g><path style="opacity:1" fill="#3e7651" d="M 1194.5,455.5 C 1202.17,455.334 1209.84,455.5 1217.5,456C 1209.18,494.076 1201.18,532.242 1193.5,570.5C 1168.06,566.654 1143.06,568.487 1118.5,576C 1093.94,585.564 1077.1,602.731 1068,627.5C 1065.06,635.323 1062.73,643.323 1061,651.5C 1045.18,727.114 1029.68,802.78 1014.5,878.5C 972.5,878.5 930.5,878.5 888.5,878.5C 912.6,761.501 936.767,644.501 961,527.5C 965.188,507.327 966.354,486.994 964.5,466.5C 1007.83,466.5 1051.17,466.5 1094.5,466.5C 1090.09,488.885 1085.42,511.218 1080.5,533.5C 1083.37,534.783 1086.21,534.783 1089,533.5C 1111.52,490.331 1146.68,464.331 1194.5,455.5 Z"/></g>
<g><path style="opacity:1" fill="#3e7651" d="M 1331.5,455.5 C 1355.98,453.226 1378.64,458.392 1399.5,471C 1416.6,485.387 1424.94,503.887 1424.5,526.5C 1427.17,526.5 1429.83,526.5 1432.5,526.5C 1436.63,506.526 1440.63,486.526 1444.5,466.5C 1483.17,466.5 1521.83,466.5 1560.5,466.5C 1531.25,609.938 1501.41,753.271 1471,896.5C 1452.77,963.727 1409.61,1004.56 1341.5,1019C 1304.94,1026.49 1268.27,1027.16 1231.5,1021C 1204.9,1016.02 1183.07,1003.19 1166,982.5C 1151.24,961.209 1146.41,937.876 1151.5,912.5C 1189.17,912.5 1226.83,912.5 1264.5,912.5C 1262.07,946.236 1277.41,959.403 1310.5,952C 1325.74,947.756 1336.24,938.256 1342,923.5C 1344.9,917.036 1347.23,910.37 1349,903.5C 1356.41,869.937 1363.25,836.27 1369.5,802.5C 1366.75,802.187 1364.09,802.52 1361.5,803.5C 1340.85,838.681 1310.18,859.181 1269.5,865C 1208.75,873.903 1173.92,848.07 1165,787.5C 1163.27,708.077 1177.94,631.743 1209,558.5C 1222.37,526.476 1242.54,499.642 1269.5,478C 1288.33,465.227 1308.99,457.727 1331.5,455.5 Z M 1371.5,544.5 C 1394.08,544.578 1406.25,555.912 1408,578.5C 1407.66,630.874 1398.99,681.874 1382,731.5C 1377.1,746.83 1368.6,759.664 1356.5,770C 1340.73,778.382 1324.73,779.049 1308.5,772C 1299.34,765.19 1294.17,756.023 1293,744.5C 1292.23,732.801 1292.57,721.135 1294,709.5C 1299.28,672.456 1307.61,636.123 1319,600.5C 1324.78,582.074 1334.61,566.241 1348.5,553C 1355.58,548.255 1363.24,545.422 1371.5,544.5 Z"/></g>
<g><path style="opacity:1" fill="#3e7651" d="M 1619.5,466.5 C 1661.51,466.167 1703.51,466.5 1745.5,467.5C 1716.78,604.422 1688.45,741.422 1660.5,878.5C 1618.49,878.833 1576.49,878.5 1534.5,877.5C 1563.22,740.578 1591.55,603.578 1619.5,466.5 Z"/></g>
</svg>
