<?xml version="1.0" encoding="UTF-8"?>
<!DOCTYPE svg PUBLIC "-//W3C//DTD SVG 1.1//EN" "http://www.w3.org/Graphics/SVG/1.1/DTD/svg11.dtd">
<svg xmlns="http://www.w3.org/2000/svg" version="1.1" width="2000px" height="1400px" style="shape-rendering:geometricPrecision; text-rendering:geometricPrecision; image-rendering:optimizeQuality; fill-rule:evenodd; clip-rule:evenodd" xmlns:xlink="http://www.w3.org/1999/xlink">
<g><path style="opacity:0.985" fill="#fefefe" d="M 1003.5,69.5 C 1082.26,69.2997 1159.26,80.7997 1234.5,104C 1362.17,106.667 1487.17,126.334 1609.5,163C 1700.37,189.336 1787.7,224.17 1871.5,267.5C 1848.98,361.948 1826.64,456.448 1804.5,551C 1835.49,585.963 1869.16,617.963 1905.5,647C 1924.5,662 1943.5,677 1962.5,692C 1939.17,710.667 1915.83,729.333 1892.5,748C 1861.95,773.556 1833.12,801.056 1806,830.5C 1747.66,895.181 1687.49,958.347 1625.5,1020C 1555.65,1087.55 1480.32,1147.88 1399.5,1201C 1356.24,1228.8 1310.57,1252.13 1262.5,1271C 1121.4,1319.96 978.065,1327.62 832.5,1294C 815.656,1289.96 798.989,1285.29 782.5,1280C 558.366,1271.47 346.366,1216.63 146.5,1115.5C 167.822,1025.88 188.988,936.213 210,846.5C 211.328,841.543 211.994,836.543 212,831.5C 165.624,781.636 115.124,736.803 60.5,697C 58.434,695.304 56.934,693.471 56,691.5C 75.1667,676.333 94.3333,661.167 113.5,646C 148.196,617.309 181.029,586.475 212,553.5C 269.675,489.486 329.175,426.986 390.5,366C 458.29,300.175 531.29,241.175 609.5,189C 653.339,160.244 699.672,135.911 748.5,116C 830.943,85.8168 915.943,70.3168 1003.5,69.5 Z"/></g>
<g><path style="opacity:1" fill="#3e7652" d="M 1075.5,112.5 C 1079.88,114.211 1084.55,114.877 1089.5,114.5C 1133.05,118.944 1175.72,127.611 1217.5,140.5C 1217.61,141.117 1217.94,141.617 1218.5,142C 1216.53,142.495 1214.53,142.662 1212.5,142.5C 1078,144.832 948.669,171.666 824.5,223C 790.517,237.49 757.85,254.324 726.5,273.5C 725.614,274.325 725.281,275.325 725.5,276.5C 885.864,230.065 1048.53,219.898 1213.5,246C 1321.89,263.41 1427.22,291.91 1529.5,331.5C 1530.44,332.974 1531.77,333.974 1533.5,334.5C 1534.91,336.914 1536.91,338.581 1539.5,339.5C 1547.83,346.493 1555.83,353.826 1563.5,361.5C 1564.58,363.587 1566.25,364.92 1568.5,365.5C 1571.17,367.5 1573.5,369.833 1575.5,372.5C 1576.91,374.914 1578.91,376.581 1581.5,377.5C 1585.5,380.833 1589.17,384.5 1592.5,388.5C 1594.9,391.903 1597.9,394.57 1601.5,396.5C 1621.83,416.167 1641.83,436.167 1661.5,456.5C 1664.1,460.771 1667.43,464.437 1671.5,467.5C 1675.17,470.5 1678.5,473.833 1681.5,477.5C 1684.1,481.771 1687.43,485.437 1691.5,488.5C 1693.83,490.167 1695.83,492.167 1697.5,494.5C 1699.43,498.1 1702.1,501.1 1705.5,503.5C 1708.5,505.833 1711.17,508.5 1713.5,511.5C 1714.76,514.427 1716.76,516.761 1719.5,518.5C 1738.17,537.839 1756.51,557.506 1774.5,577.5C 1776.43,581.1 1779.1,584.1 1782.5,586.5C 1785.5,588.833 1788.17,591.5 1790.5,594.5C 1794.1,599.774 1798.44,604.441 1803.5,608.5C 1809.83,614.167 1815.83,620.167 1821.5,626.5C 1823.24,629.243 1825.57,631.243 1828.5,632.5C 1831.17,634.5 1833.5,636.833 1835.5,639.5C 1836.58,641.587 1838.25,642.92 1840.5,643.5C 1860.23,660.35 1879.9,677.184 1899.5,694C 1880.57,710.15 1861.57,726.316 1842.5,742.5C 1840.25,743.08 1838.58,744.413 1837.5,746.5C 1835.17,749.5 1832.5,752.167 1829.5,754.5C 1827.25,755.08 1825.58,756.413 1824.5,758.5C 1816.83,766.833 1808.83,774.833 1800.5,782.5C 1797.1,784.9 1794.43,787.9 1792.5,791.5C 1788.83,795.833 1784.83,799.833 1780.5,803.5C 1778.09,804.911 1776.42,806.911 1775.5,809.5C 1773.17,812.5 1770.5,815.167 1767.5,817.5C 1765.41,818.585 1764.08,820.251 1763.5,822.5C 1757.2,830.466 1750.2,837.799 1742.5,844.5C 1740.41,845.585 1739.08,847.251 1738.5,849.5C 1732.2,857.466 1725.2,864.799 1717.5,871.5C 1715.41,872.585 1714.08,874.251 1713.5,876.5C 1710.5,880.167 1707.17,883.5 1703.5,886.5C 1701.41,887.585 1700.08,889.251 1699.5,891.5C 1696.17,895.5 1692.5,899.167 1688.5,902.5C 1686.09,903.911 1684.42,905.911 1683.5,908.5C 1678.5,914.167 1673.17,919.5 1667.5,924.5C 1664.43,926.569 1662.09,929.236 1660.5,932.5C 1642.17,951.5 1623.5,970.167 1604.5,988.5C 1600.9,990.43 1597.9,993.097 1595.5,996.5C 1591.83,1000.83 1587.83,1004.83 1583.5,1008.5C 1581.25,1009.08 1579.58,1010.41 1578.5,1012.5C 1576.17,1015.5 1573.5,1018.17 1570.5,1020.5C 1568.25,1021.08 1566.58,1022.41 1565.5,1024.5C 1495.57,1090.27 1419.24,1147.44 1336.5,1196C 1264.25,1236.53 1186.92,1261.86 1104.5,1272C 1000.93,1285.71 899.261,1277.55 799.5,1247.5C 801.571,1246.19 804.071,1245.52 807,1245.5C 851.03,1244.27 894.863,1240.77 938.5,1235C 982.631,1227.86 1026.3,1218.86 1069.5,1208C 1104.45,1197.35 1139.11,1185.68 1173.5,1173C 1215.61,1155.26 1256.27,1134.26 1295.5,1110C 1208.36,1135.47 1119.36,1150.47 1028.5,1155C 957.806,1157.76 887.473,1154.09 817.5,1144C 704.601,1126.36 594.934,1097.36 488.5,1057C 484.325,1054.31 480.325,1051.48 476.5,1048.5C 475.5,1048.17 474.833,1047.5 474.5,1046.5C 473.089,1044.09 471.089,1042.42 468.5,1041.5C 460.174,1034.51 452.174,1027.17 444.5,1019.5C 442.761,1016.76 440.427,1014.76 437.5,1013.5C 434.5,1011.17 431.833,1008.5 429.5,1005.5C 427.1,1002.1 424.1,999.43 420.5,997.5C 415.833,993.5 411.5,989.167 407.5,984.5C 398.447,974.445 388.78,965.112 378.5,956.5C 373.559,949.89 367.892,943.89 361.5,938.5C 355.167,932.833 349.167,926.833 343.5,920.5C 341.57,916.9 338.903,913.9 335.5,911.5C 331.167,907.833 327.167,903.833 323.5,899.5C 322.581,896.911 320.914,894.911 318.5,893.5C 314.833,890.5 311.5,887.167 308.5,883.5C 307.581,880.911 305.914,878.911 303.5,877.5C 300.833,875.5 298.5,873.167 296.5,870.5C 295.581,867.911 293.914,865.911 291.5,864.5C 288.167,861.833 285.167,858.833 282.5,855.5C 281.92,853.251 280.587,851.585 278.5,850.5C 275.5,848.167 272.833,845.5 270.5,842.5C 269.92,840.251 268.587,838.585 266.5,837.5C 263.5,835.167 260.833,832.5 258.5,829.5C 257.92,827.251 256.587,825.585 254.5,824.5C 251.5,822.167 248.833,819.5 246.5,816.5C 245.581,813.911 243.914,811.911 241.5,810.5C 237.833,807.5 234.5,804.167 231.5,800.5C 230.243,797.573 228.243,795.239 225.5,793.5C 219.833,788.5 214.5,783.167 209.5,777.5C 204.833,770.833 199.167,765.167 192.5,760.5C 189.5,758.167 186.833,755.5 184.5,752.5C 183.089,750.086 181.089,748.419 178.5,747.5C 173.411,743.622 168.745,739.289 164.5,734.5C 163.089,732.086 161.089,730.419 158.5,729.5C 145.664,718.834 132.664,708.334 119.5,698C 115.473,694.689 115.807,691.689 120.5,689C 142.644,671.352 164.311,653.185 185.5,634.5C 194.746,626.759 203.579,618.426 212,609.5C 212.464,608.906 212.631,608.239 212.5,607.5C 216.167,603.167 220.167,599.167 224.5,595.5C 227.903,593.1 230.57,590.1 232.5,586.5C 234.833,583.5 237.5,580.833 240.5,578.5C 243.243,576.761 245.243,574.427 246.5,571.5C 264.828,551.173 283.494,531.173 302.5,511.5C 305.903,509.1 308.57,506.1 310.5,502.5C 317.132,494.201 324.465,486.534 332.5,479.5C 337.23,475.773 341.23,471.44 344.5,466.5C 348.167,462.167 352.167,458.167 356.5,454.5C 375.167,436.5 393.5,418.167 411.5,399.5C 413.5,396.833 415.833,394.5 418.5,392.5C 423.774,388.895 428.441,384.562 432.5,379.5C 514.642,299.52 605.975,232.02 706.5,177C 792.675,135.373 883.675,113.04 979.5,110C 1011.56,108.957 1043.56,109.79 1075.5,112.5 Z"/></g>
<g><path style="opacity:1" fill="#70957a" d="M 1075.5,112.5 C 1080.35,112.813 1085.02,113.479 1089.5,114.5C 1084.55,114.877 1079.88,114.211 1075.5,112.5 Z"/></g>
<g><path style="opacity:1" fill="#69977a" d="M 1217.5,140.5 C 1262.24,141.188 1306.91,143.688 1351.5,148C 1485.5,164.25 1615.17,197.25 1740.5,247C 1770.43,259.301 1800.1,272.135 1829.5,285.5C 1826.6,299.48 1823.77,313.48 1821,327.5C 1809.88,373.417 1799.04,419.417 1788.5,465.5C 1778.37,460.599 1769.04,454.433 1760.5,447C 1756.03,445.931 1752.36,443.597 1749.5,440C 1734.17,432.341 1719.51,423.675 1705.5,414C 1659.04,388.604 1611.37,365.604 1562.5,345C 1554.84,342.17 1547.17,339.336 1539.5,336.5C 1537.81,335.696 1536.14,334.696 1534.5,333.5C 1533.89,333.624 1533.56,333.957 1533.5,334.5C 1531.77,333.974 1530.44,332.974 1529.5,331.5C 1394.2,277.271 1253.2,244.438 1106.5,233C 977.328,225.204 850.661,239.204 726.5,275C 818.267,221.07 916.601,184.07 1021.5,164C 1084.78,152.025 1148.44,144.858 1212.5,142.5C 1214.53,142.662 1216.53,142.495 1218.5,142C 1217.94,141.617 1217.61,141.117 1217.5,140.5 Z"/></g>
<g><path style="opacity:1" fill="#578562" d="M 1212.5,142.5 C 1148.44,144.858 1084.78,152.025 1021.5,164C 916.601,184.07 818.267,221.07 726.5,275C 850.661,239.204 977.328,225.204 1106.5,233C 1253.2,244.438 1394.2,277.271 1529.5,331.5C 1427.22,291.91 1321.89,263.41 1213.5,246C 1048.53,219.898 885.864,230.065 725.5,276.5C 725.281,275.325 725.614,274.325 726.5,273.5C 757.85,254.324 790.517,237.49 824.5,223C 948.669,171.666 1078,144.832 1212.5,142.5 Z"/></g>
<g><path style="opacity:1" fill="#b9ccbf" d="M 1539.5,336.5 C 1538.76,336.369 1538.09,336.536 1537.5,337C 1538.38,337.708 1539.05,338.542 1539.5,339.5C 1536.91,338.581 1534.91,336.914 1533.5,334.5C 1533.56,333.957 1533.89,333.624 1534.5,333.5C 1536.14,334.696 1537.81,335.696 1539.5,336.5 Z"/></g>
<g><path style="opacity:1" fill="#8ba993" d="M 1563.5,361.5 C 1565.75,362.08 1567.42,363.413 1568.5,365.5C 1566.25,364.92 1564.58,363.587 1563.5,361.5 Z"/></g>
<g><path style="opacity:1" fill="#8ca994" d="M 1575.5,372.5 C 1578.09,373.419 1580.09,375.086 1581.5,377.5C 1578.91,376.581 1576.91,374.914 1575.5,372.5 Z"/></g>
<g><path style="opacity:1" fill="#76987e" d="M 432.5,379.5 C 428.441,384.562 423.774,388.895 418.5,392.5C 422.559,387.438 427.226,383.105 432.5,379.5 Z"/></g>
<g><path style="opacity:1" fill="#fefefe" d="M 1557.5,449.5 C 1560.83,453.5 1564.5,457.167 1568.5,460.5C 1599.2,496.423 1614.2,538.256 1613.5,586C 1612.96,628.085 1606.62,669.252 1594.5,709.5C 1592.59,713.216 1591.26,717.216 1590.5,721.5C 1573.32,768.551 1547.98,810.551 1514.5,847.5C 1507.83,853.5 1501.5,859.833 1495.5,866.5C 1478.12,881.369 1459.45,894.535 1439.5,906C 1438.98,906.561 1438.64,907.228 1438.5,908C 1445.56,921.811 1454.56,934.144 1465.5,945C 1480.11,951.744 1495.44,954.077 1511.5,952C 1524.05,949.872 1536.05,946.039 1547.5,940.5C 1548.4,942.246 1549.06,944.08 1549.5,946C 1544.67,966.831 1539.83,987.664 1535,1008.5C 1491.77,1030.84 1446.27,1037.01 1398.5,1027C 1372.24,1021.72 1352.4,1007.56 1339,984.5C 1332.26,971.943 1326.09,959.109 1320.5,946C 1266.79,951.375 1213.45,948.708 1160.5,938C 1119.05,929.616 1083.39,910.782 1053.5,881.5C 1052.92,879.251 1051.59,877.585 1049.5,876.5C 1026.15,846.979 1012.65,813.313 1009,775.5C 1007.83,764.522 1007,753.522 1006.5,742.5C 1005.5,742.5 1004.5,742.5 1003.5,742.5C 989.145,782.566 968.145,818.566 940.5,850.5C 932.833,857.5 925.5,864.833 918.5,872.5C 869.331,912.85 812.665,934.683 748.5,938C 637.833,938.667 527.167,938.667 416.5,938C 420.381,922.641 423.714,907.141 426.5,891.5C 435.5,890.167 444.5,888.833 453.5,887.5C 487.513,742.938 521.846,598.438 556.5,454C 556.355,453.228 556.022,452.561 555.5,452C 536.854,450.168 518.188,448.668 499.5,447.5C 498.432,446.566 497.099,446.232 495.5,446.5C 495.5,445.5 495.5,444.5 495.5,443.5C 498.816,429.568 501.816,415.568 504.5,401.5C 598.096,400.503 691.763,400.169 785.5,400.5C 826.476,400.738 866.809,405.905 906.5,416C 999.152,441.517 1042.15,502.351 1035.5,598.5C 1036.68,598.719 1037.68,598.386 1038.5,597.5C 1078.87,512.632 1141.87,450.799 1227.5,412C 1282.08,389.26 1338.75,381.593 1397.5,389C 1445.39,392.468 1490.06,406.135 1531.5,430C 1540.61,435.947 1549.28,442.447 1557.5,449.5 Z"/></g>
<g><path style="opacity:1" fill="#89a791" d="M 1592.5,388.5 C 1596.1,390.43 1599.1,393.097 1601.5,396.5C 1597.9,394.57 1594.9,391.903 1592.5,388.5 Z"/></g>
<g><path style="opacity:1" fill="#98b5a2" d="M 785.5,400.5 C 691.763,400.169 598.096,400.503 504.5,401.5C 550.995,400.167 597.829,399.5 645,399.5C 692.001,399.5 738.835,399.833 785.5,400.5 Z"/></g>
<g><path style="opacity:1" fill="#7b9a82" d="M 411.5,399.5 C 393.5,418.167 375.167,436.5 356.5,454.5C 373.579,435.918 391.246,417.752 409.5,400C 410.094,399.536 410.761,399.369 411.5,399.5 Z"/></g>
<g><path style="opacity:1" fill="#3e7652" d="M 1387.5,717.5 C 1386.08,719.515 1385.41,721.848 1385.5,724.5C 1379.33,743.17 1372.83,761.837 1366,780.5C 1360.64,794.224 1354.47,807.557 1347.5,820.5C 1320.1,803.144 1290.1,793.811 1257.5,792.5C 1253.71,810.543 1249.71,828.543 1245.5,846.5C 1269.92,849.436 1286.09,862.436 1294,885.5C 1281.05,893.943 1266.88,896.776 1251.5,894C 1237.46,892.6 1224.79,887.766 1213.5,879.5C 1211.17,876.5 1208.5,873.833 1205.5,871.5C 1200.93,865.279 1197.26,858.612 1194.5,851.5C 1194.59,848.848 1193.92,846.515 1192.5,844.5C 1190.52,830.579 1190.02,816.579 1191,802.5C 1198.67,715.151 1218,630.484 1249,548.5C 1260.25,519.318 1275.58,492.651 1295,468.5C 1320.39,439.619 1350.89,432.786 1386.5,448C 1406.35,458.198 1418.18,474.364 1422,496.5C 1422.94,526.689 1420.94,556.689 1416,586.5C 1408.99,630.735 1399.49,674.401 1387.5,717.5 Z"/></g>
<g><path style="opacity:1" fill="#97b4a0" d="M 495.5,443.5 C 495.5,444.5 495.5,445.5 495.5,446.5C 497.099,446.232 498.432,446.566 499.5,447.5C 497.833,447.5 496.167,447.5 494.5,447.5C 494.232,445.901 494.566,444.568 495.5,443.5 Z"/></g>
<g><path style="opacity:1" fill="#85a38c" d="M 1557.5,449.5 C 1562.17,452.167 1565.83,455.833 1568.5,460.5C 1564.5,457.167 1560.83,453.5 1557.5,449.5 Z"/></g>
<g><path style="opacity:1" fill="#3e7652" d="M 830.5,466.5 C 832.5,469.167 834.833,471.5 837.5,473.5C 847.477,487.916 853.644,503.916 856,521.5C 856.406,607.913 841.406,691.58 811,772.5C 800.237,800.714 785.404,826.381 766.5,849.5C 762.167,853.167 758.167,857.167 754.5,861.5C 741.217,872.974 725.884,880.474 708.5,884C 691.833,884.667 675.167,884.667 658.5,884C 653.102,883.483 647.769,882.649 642.5,881.5C 675.358,739.069 708.691,596.735 742.5,454.5C 762.503,454.333 782.503,454.5 802.5,455C 812.75,456.8 822.083,460.633 830.5,466.5 Z"/></g>
<g><path style="opacity:1" fill="#84a28b" d="M 1661.5,456.5 C 1665.57,459.563 1668.9,463.229 1671.5,467.5C 1667.43,464.437 1664.1,460.771 1661.5,456.5 Z"/></g>
<g><path style="opacity:1" fill="#b7c4b8" d="M 830.5,466.5 C 833.833,467.833 836.167,470.167 837.5,473.5C 834.833,471.5 832.5,469.167 830.5,466.5 Z"/></g>
<g><path style="opacity:1" fill="#82a18a" d="M 344.5,466.5 C 341.23,471.44 337.23,475.773 332.5,479.5C 335.77,474.56 339.77,470.227 344.5,466.5 Z"/></g>
<g><path style="opacity:1" fill="#82a18a" d="M 1681.5,477.5 C 1685.57,480.563 1688.9,484.229 1691.5,488.5C 1687.43,485.437 1684.1,481.771 1681.5,477.5 Z"/></g>
<g><path style="opacity:1" fill="#809f88" d="M 1697.5,494.5 C 1700.9,496.9 1703.57,499.9 1705.5,503.5C 1702.1,501.1 1699.43,498.1 1697.5,494.5 Z"/></g>
<g><path style="opacity:1" fill="#809f88" d="M 310.5,502.5 C 308.57,506.1 305.903,509.1 302.5,511.5C 304.43,507.9 307.097,504.9 310.5,502.5 Z"/></g>
<g><path style="opacity:1" fill="#84a28c" d="M 1713.5,511.5 C 1716.24,513.239 1718.24,515.573 1719.5,518.5C 1716.76,516.761 1714.76,514.427 1713.5,511.5 Z"/></g>
<g><path style="opacity:1" fill="#83a18a" d="M 246.5,571.5 C 245.243,574.427 243.243,576.761 240.5,578.5C 241.757,575.573 243.757,573.239 246.5,571.5 Z"/></g>
<g><path style="opacity:1" fill="#84a28b" d="M 1774.5,577.5 C 1777.9,579.9 1780.57,582.9 1782.5,586.5C 1779.1,584.1 1776.43,581.1 1774.5,577.5 Z"/></g>
<g><path style="opacity:1" fill="#85a28c" d="M 232.5,586.5 C 230.57,590.1 227.903,593.1 224.5,595.5C 226.43,591.9 229.097,588.9 232.5,586.5 Z"/></g>
<g><path style="opacity:1" fill="#84a38c" d="M 1790.5,594.5 C 1795.56,598.559 1799.9,603.226 1803.5,608.5C 1798.44,604.441 1794.1,599.774 1790.5,594.5 Z"/></g>
<g><path style="opacity:1" fill="#73957b" d="M 212.5,607.5 C 212.631,608.239 212.464,608.906 212,609.5C 203.579,618.426 194.746,626.759 185.5,634.5C 194.167,625.167 203.167,616.167 212.5,607.5 Z"/></g>
<g><path style="opacity:1" fill="#8caa94" d="M 1821.5,626.5 C 1824.43,627.757 1826.76,629.757 1828.5,632.5C 1825.57,631.243 1823.24,629.243 1821.5,626.5 Z"/></g>
<g><path style="opacity:1" fill="#8daa95" d="M 1835.5,639.5 C 1837.75,640.08 1839.42,641.413 1840.5,643.5C 1838.25,642.92 1836.58,641.587 1835.5,639.5 Z"/></g>
<g><path style="opacity:1" fill="#74977d" d="M 1594.5,709.5 C 1594.14,713.915 1592.81,717.915 1590.5,721.5C 1591.26,717.216 1592.59,713.216 1594.5,709.5 Z"/></g>
<g><path style="opacity:1" fill="#b1bfb0" d="M 1387.5,717.5 C 1387.59,720.152 1386.92,722.485 1385.5,724.5C 1385.41,721.848 1386.08,719.515 1387.5,717.5 Z"/></g>
<g><path style="opacity:1" fill="#85a48d" d="M 158.5,729.5 C 161.089,730.419 163.089,732.086 164.5,734.5C 161.911,733.581 159.911,731.914 158.5,729.5 Z"/></g>
<g><path style="opacity:1" fill="#91ae99" d="M 1842.5,742.5 C 1841.42,744.587 1839.75,745.92 1837.5,746.5C 1838.58,744.413 1840.25,743.08 1842.5,742.5 Z"/></g>
<g><path style="opacity:1" fill="#85a38c" d="M 178.5,747.5 C 181.089,748.419 183.089,750.086 184.5,752.5C 181.911,751.581 179.911,749.914 178.5,747.5 Z"/></g>
<g><path style="opacity:1" fill="#92af9b" d="M 1829.5,754.5 C 1828.42,756.587 1826.75,757.92 1824.5,758.5C 1825.58,756.413 1827.25,755.08 1829.5,754.5 Z"/></g>
<g><path style="opacity:1" fill="#83a18a" d="M 192.5,760.5 C 199.167,765.167 204.833,770.833 209.5,777.5C 203.5,772.167 197.833,766.5 192.5,760.5 Z"/></g>
<g><path style="opacity:1" fill="#8fad98" d="M 1800.5,782.5 C 1798.57,786.1 1795.9,789.1 1792.5,791.5C 1794.43,787.9 1797.1,784.9 1800.5,782.5 Z"/></g>
<g><path style="opacity:1" fill="#8ba993" d="M 225.5,793.5 C 228.243,795.239 230.243,797.573 231.5,800.5C 228.757,798.761 226.757,796.427 225.5,793.5 Z"/></g>
<g><path style="opacity:1" fill="#8fac97" d="M 1780.5,803.5 C 1779.58,806.089 1777.91,808.089 1775.5,809.5C 1776.42,806.911 1778.09,804.911 1780.5,803.5 Z"/></g>
<g><path style="opacity:1" fill="#8ba893" d="M 241.5,810.5 C 243.914,811.911 245.581,813.911 246.5,816.5C 244.086,815.089 242.419,813.089 241.5,810.5 Z"/></g>
<g><path style="opacity:1" fill="#90ad98" d="M 1767.5,817.5 C 1766.92,819.749 1765.59,821.415 1763.5,822.5C 1764.08,820.251 1765.41,818.585 1767.5,817.5 Z"/></g>
<g><path style="opacity:1" fill="#8ba893" d="M 254.5,824.5 C 256.587,825.585 257.92,827.251 258.5,829.5C 256.413,828.415 255.08,826.749 254.5,824.5 Z"/></g>
<g><path style="opacity:1" fill="#8ca994" d="M 266.5,837.5 C 268.587,838.585 269.92,840.251 270.5,842.5C 268.413,841.415 267.08,839.749 266.5,837.5 Z"/></g>
<g><path style="opacity:1" fill="#f6f8f7" d="M 1568.5,905.5 C 1567.92,903.251 1566.59,901.585 1564.5,900.5C 1554.68,881.875 1557.02,865.042 1571.5,850C 1590.54,837.157 1608.04,838.991 1624,855.5C 1633.22,869.741 1633.89,884.408 1626,899.5C 1614.37,915.153 1599.21,919.986 1580.5,914C 1576.34,911.336 1572.34,908.503 1568.5,905.5 Z"/></g>
<g><path style="opacity:1" fill="#afbdae" d="M 1192.5,844.5 C 1193.92,846.515 1194.59,848.848 1194.5,851.5C 1193.08,849.485 1192.41,847.152 1192.5,844.5 Z"/></g>
<g><path style="opacity:1" fill="#8fac97" d="M 1742.5,844.5 C 1741.92,846.749 1740.59,848.415 1738.5,849.5C 1739.08,847.251 1740.41,845.585 1742.5,844.5 Z"/></g>
<g><path style="opacity:1" fill="#427753" d="M 1587.5,846.5 C 1607.41,844.692 1619.91,853.359 1625,872.5C 1627.1,892.484 1618.6,905.317 1599.5,911C 1580.37,911.507 1568.87,902.341 1565,883.5C 1563.83,865.827 1571.33,853.493 1587.5,846.5 Z"/></g>
<g><path style="opacity:1" fill="#8caa94" d="M 278.5,850.5 C 280.587,851.585 281.92,853.251 282.5,855.5C 280.413,854.415 279.08,852.749 278.5,850.5 Z"/></g>
<g><path style="opacity:1" fill="#b7c5b8" d="M 766.5,849.5 C 763.5,854.5 759.5,858.5 754.5,861.5C 758.167,857.167 762.167,853.167 766.5,849.5 Z"/></g>
<g><path style="opacity:1" fill="#73957b" d="M 1514.5,847.5 C 1509.17,854.833 1502.83,861.167 1495.5,866.5C 1501.5,859.833 1507.83,853.5 1514.5,847.5 Z"/></g>
<g><path style="opacity:1" fill="#78866d" d="M 1601.5,857.5 C 1594.83,857.5 1588.17,857.5 1581.5,857.5C 1581.5,871.833 1581.5,886.167 1581.5,900.5C 1581.5,900.833 1581.5,901.167 1581.5,901.5C 1580.5,886.676 1580.17,871.676 1580.5,856.5C 1587.69,856.175 1594.69,856.509 1601.5,857.5 Z"/></g>
<g><path style="opacity:1" fill="#f6f8f6" d="M 1601.5,857.5 C 1606.02,857.392 1609.19,859.392 1611,863.5C 1611.67,867.5 1611.67,871.5 1611,875.5C 1608.46,878.899 1605.29,881.232 1601.5,882.5C 1605.38,888.275 1608.72,894.275 1611.5,900.5C 1609.21,900.756 1607.04,900.423 1605,899.5C 1602.03,893.706 1598.87,888.039 1595.5,882.5C 1592.91,881.52 1590.25,881.187 1587.5,881.5C 1586.51,887.645 1586.18,893.978 1586.5,900.5C 1584.83,900.5 1583.17,900.5 1581.5,900.5C 1581.5,886.167 1581.5,871.833 1581.5,857.5C 1588.17,857.5 1594.83,857.5 1601.5,857.5 Z"/></g>
<g><path style="opacity:1" fill="#7f9f87" d="M 940.5,850.5 C 940.631,851.239 940.464,851.906 940,852.5C 933.244,859.761 926.078,866.428 918.5,872.5C 925.5,864.833 932.833,857.5 940.5,850.5 Z"/></g>
<g><path style="opacity:1" fill="#969f8d" d="M 1601.5,862.5 C 1596.83,862.5 1592.17,862.5 1587.5,862.5C 1587.5,866.833 1587.5,871.167 1587.5,875.5C 1591.5,875.5 1595.5,875.5 1599.5,875.5C 1595.37,876.485 1591.03,876.818 1586.5,876.5C 1586.5,871.5 1586.5,866.5 1586.5,861.5C 1591.69,861.179 1596.69,861.513 1601.5,862.5 Z"/></g>
<g><path style="opacity:1" fill="#3f7652" d="M 1601.5,862.5 C 1605.74,865.222 1606.57,868.889 1604,873.5C 1602.89,875.037 1601.39,875.703 1599.5,875.5C 1595.5,875.5 1591.5,875.5 1587.5,875.5C 1587.5,871.167 1587.5,866.833 1587.5,862.5C 1592.17,862.5 1596.83,862.5 1601.5,862.5 Z"/></g>
<g><path style="opacity:1" fill="#89a791" d="M 291.5,864.5 C 293.914,865.911 295.581,867.911 296.5,870.5C 294.086,869.089 292.419,867.089 291.5,864.5 Z"/></g>
<g><path style="opacity:1" fill="#b5c1b4" d="M 1205.5,871.5 C 1208.5,873.833 1211.17,876.5 1213.5,879.5C 1209.83,877.833 1207.17,875.167 1205.5,871.5 Z"/></g>
<g><path style="opacity:1" fill="#8fac97" d="M 1717.5,871.5 C 1716.92,873.749 1715.59,875.415 1713.5,876.5C 1714.08,874.251 1715.41,872.585 1717.5,871.5 Z"/></g>
<g><path style="opacity:1" fill="#8ba993" d="M 303.5,877.5 C 305.914,878.911 307.581,880.911 308.5,883.5C 306.086,882.089 304.419,880.089 303.5,877.5 Z"/></g>
<g><path style="opacity:1" fill="#89a690" d="M 1049.5,876.5 C 1051.59,877.585 1052.92,879.251 1053.5,881.5C 1051.41,880.415 1050.08,878.749 1049.5,876.5 Z"/></g>
<g><path style="opacity:1" fill="#b0baac" d="M 1587.5,881.5 C 1587.5,888.167 1587.5,894.833 1587.5,901.5C 1585.5,901.5 1583.5,901.5 1581.5,901.5C 1581.5,901.167 1581.5,900.833 1581.5,900.5C 1583.17,900.5 1584.83,900.5 1586.5,900.5C 1586.18,893.978 1586.51,887.645 1587.5,881.5 Z"/></g>
<g><path style="opacity:1" fill="#8fac98" d="M 1703.5,886.5 C 1702.92,888.749 1701.59,890.415 1699.5,891.5C 1700.08,889.251 1701.41,887.585 1703.5,886.5 Z"/></g>
<g><path style="opacity:1" fill="#8ca993" d="M 318.5,893.5 C 320.914,894.911 322.581,896.911 323.5,899.5C 321.086,898.089 319.419,896.089 318.5,893.5 Z"/></g>
<g><path style="opacity:1" fill="#84a38c" d="M 1564.5,900.5 C 1566.59,901.585 1567.92,903.251 1568.5,905.5C 1566.41,904.415 1565.08,902.749 1564.5,900.5 Z"/></g>
<g><path style="opacity:1" fill="#90ad98" d="M 1688.5,902.5 C 1687.58,905.089 1685.91,907.089 1683.5,908.5C 1684.42,905.911 1686.09,903.911 1688.5,902.5 Z"/></g>
<g><path style="opacity:1" fill="#8aa791" d="M 335.5,911.5 C 338.903,913.9 341.57,916.9 343.5,920.5C 340.097,918.1 337.43,915.1 335.5,911.5 Z"/></g>
<g><path style="opacity:1" fill="#68967a" d="M 476.5,1048.5 C 480.325,1051.48 484.325,1054.31 488.5,1057C 594.934,1097.36 704.601,1126.36 817.5,1144C 887.473,1154.09 957.806,1157.76 1028.5,1155C 1119.36,1150.47 1208.36,1135.47 1295.5,1110C 1256.27,1134.26 1215.61,1155.26 1173.5,1173C 1139.11,1185.68 1104.45,1197.35 1069.5,1208C 1026.3,1218.86 982.631,1227.86 938.5,1235C 894.863,1240.77 851.03,1244.27 807,1245.5C 804.071,1245.52 801.571,1246.19 799.5,1247.5C 584.652,1243.2 380.319,1194.7 186.5,1102C 185.978,1101.44 185.645,1100.77 185.5,1100C 199.448,1040.71 213.615,981.544 228,922.5C 306.711,976.108 390.877,1019.61 480.5,1053C 478.959,1051.63 477.625,1050.13 476.5,1048.5 Z"/></g>
<g><path style="opacity:1" fill="#8eac97" d="M 1667.5,924.5 C 1665.91,927.764 1663.57,930.431 1660.5,932.5C 1662.09,929.236 1664.43,926.569 1667.5,924.5 Z"/></g>
<g><path style="opacity:1" fill="#8aa791" d="M 361.5,938.5 C 367.892,943.89 373.559,949.89 378.5,956.5C 372.108,951.11 366.441,945.11 361.5,938.5 Z"/></g>
<g><path style="opacity:1" fill="#84a28b" d="M 378.5,956.5 C 388.78,965.112 398.447,974.445 407.5,984.5C 397.22,975.888 387.553,966.555 378.5,956.5 Z"/></g>
<g><path style="opacity:1" fill="#90ad98" d="M 1604.5,988.5 C 1602.1,991.903 1599.1,994.57 1595.5,996.5C 1597.9,993.097 1600.9,990.43 1604.5,988.5 Z"/></g>
<g><path style="opacity:1" fill="#82a189" d="M 420.5,997.5 C 424.1,999.43 427.1,1002.1 429.5,1005.5C 425.9,1003.57 422.9,1000.9 420.5,997.5 Z"/></g>
<g><path style="opacity:1" fill="#91ae9a" d="M 1583.5,1008.5 C 1582.42,1010.59 1580.75,1011.92 1578.5,1012.5C 1579.58,1010.41 1581.25,1009.08 1583.5,1008.5 Z"/></g>
<g><path style="opacity:1" fill="#84a28b" d="M 437.5,1013.5 C 440.427,1014.76 442.761,1016.76 444.5,1019.5C 441.573,1018.24 439.239,1016.24 437.5,1013.5 Z"/></g>
<g><path style="opacity:1" fill="#91ae9a" d="M 1570.5,1020.5 C 1569.42,1022.59 1567.75,1023.92 1565.5,1024.5C 1566.58,1022.41 1568.25,1021.08 1570.5,1020.5 Z"/></g>
<g><path style="opacity:1" fill="#86a48d" d="M 468.5,1041.5 C 471.089,1042.42 473.089,1044.09 474.5,1046.5C 471.911,1045.58 469.911,1043.91 468.5,1041.5 Z"/></g>
</svg>
