<?xml version="1.0" encoding="UTF-8"?>
<!DOCTYPE svg PUBLIC "-//W3C//DTD SVG 1.1//EN" "http://www.w3.org/Graphics/SVG/1.1/DTD/svg11.dtd">
<svg xmlns="http://www.w3.org/2000/svg" version="1.1" width="860px" height="344px" style="shape-rendering:geometricPrecision; text-rendering:geometricPrecision; image-rendering:optimizeQuality; fill-rule:evenodd; clip-rule:evenodd" xmlns:xlink="http://www.w3.org/1999/xlink">
<g><path style="opacity:1" fill="#0a0a09" d="M 195.5,59.5 C 206.303,70.4342 213.469,83.4342 217,98.5C 219.774,100.821 221.274,103.821 221.5,107.5C 220.64,112.347 219.64,117.18 218.5,122C 219.9,125.731 221.733,129.231 224,132.5C 224.832,143.675 222.832,154.342 218,164.5C 217.667,168.833 217.333,173.167 217,177.5C 215.43,178.614 214.097,179.947 213,181.5C 212.426,187.856 212.093,194.189 212,200.5C 214.833,203.333 217.667,206.167 220.5,209C 228.755,211.417 236.755,214.417 244.5,218C 260.25,219.327 275.917,221.16 291.5,223.5C 291.509,225.308 291.009,226.975 290,228.5C 287.262,227.518 284.428,226.852 281.5,226.5C 280.048,225.698 278.382,225.198 276.5,225C 270.175,224.5 263.842,224.334 257.5,224.5C 255.5,224.5 253.5,224.5 251.5,224.5C 249.735,223.539 247.735,223.205 245.5,223.5C 245.263,224.791 245.596,225.791 246.5,226.5C 252.712,240.594 259.212,254.594 266,268.5C 266.15,272.554 264.317,275.554 260.5,277.5C 253.435,260.353 246.602,243.02 240,225.5C 238.795,221.123 235.961,218.79 231.5,218.5C 234.744,230.413 237.911,242.413 241,254.5C 242.678,261.078 243.844,267.745 244.5,274.5C 247.572,274.183 250.572,274.516 253.5,275.5C 250.694,276.168 248.028,276.834 245.5,277.5C 244.5,277.5 243.5,277.5 242.5,277.5C 236.196,277.439 230.196,278.439 224.5,280.5C 223.833,280.5 223.167,280.5 222.5,280.5C 217.547,280.123 212.881,280.789 208.5,282.5C 207.5,282.5 206.5,282.5 205.5,282.5C 172.475,285.672 140.809,293.672 110.5,306.5C 108.847,306.34 107.514,305.674 106.5,304.5C 104.595,285.715 105.595,267.048 109.5,248.5C 107.09,248.921 105.257,250.254 104,252.5C 100.366,266.334 97.3662,280.334 95,294.5C 94.5831,295.756 93.7498,296.423 92.5,296.5C 89.5265,294.853 86.8599,292.853 84.5,290.5C 85.8736,282.339 87.8736,274.339 90.5,266.5C 90.4302,265.228 90.0968,264.062 89.5,263C 87.4817,262.495 85.4817,261.995 83.5,261.5C 81.0733,261.523 78.74,262.023 76.5,263C 72.2695,265.403 67.9362,267.57 63.5,269.5C 61.3886,268.395 60.0553,266.729 59.5,264.5C 71.9839,258.427 84.6505,252.594 97.5,247C 101.462,242.685 106.129,239.352 111.5,237C 113.89,230.493 115.89,223.827 117.5,217C 113.375,210.586 109.875,203.753 107,196.5C 104.512,194.257 101.846,192.257 99,190.5C 97.2632,186.351 96.2632,182.017 96,177.5C 85.7415,168.335 81.0749,157.001 82,143.5C 78.9031,140.911 76.4031,137.911 74.5,134.5C 77.0426,127.695 77.876,120.695 77,113.5C 75.137,108.476 72.637,103.809 69.5,99.5C 70.1272,98.5832 70.4606,97.5832 70.5,96.5C 75.4996,90.6636 80.3329,84.6636 85,78.5C 86.909,75.2716 86.7424,72.105 84.5,69C 84.7591,67.7387 85.4258,66.7387 86.5,66C 96.1715,62.9971 105.172,58.6638 113.5,53C 142.147,39.9089 169.48,42.0755 195.5,59.5 Z"/></g>
<g><path style="opacity:1" fill="#fcfcfc" d="M 119.5,130.5 C 115.722,115.152 118.055,100.486 126.5,86.5C 133.779,85.5487 141.113,85.3821 148.5,86C 152.336,83.5458 152.336,81.2124 148.5,79C 133.592,71.8387 118.592,71.672 103.5,78.5C 102.479,77.9984 102.312,77.3317 103,76.5C 107.939,71.3016 113.439,66.9683 119.5,63.5C 117.833,62.8333 116.167,62.1667 114.5,61.5C 128.039,52.2222 143.039,48.7222 159.5,51C 195.125,57.438 212.458,78.6047 211.5,114.5C 207.417,107.332 203.084,100.332 198.5,93.5C 198.167,94 197.833,94.5 197.5,95C 198.796,99.0714 199.629,103.238 200,107.5C 201.608,110.772 203.608,113.772 206,116.5C 206.977,118.74 207.477,121.073 207.5,123.5C 193.97,123.349 180.637,124.849 167.5,128C 164.991,129.421 162.657,131.088 160.5,133C 156.495,133.145 152.662,133.978 149,135.5C 139.715,130.95 129.882,129.283 119.5,130.5 Z"/></g>
<g><path style="opacity:1" fill="#689679" d="M 195.5,59.5 C 241.353,71.8524 272.853,100.186 290,144.5C 299.046,170.837 299.546,197.17 291.5,223.5C 275.917,221.16 260.25,219.327 244.5,218C 236.755,214.417 228.755,211.417 220.5,209C 217.667,206.167 214.833,203.333 212,200.5C 212.093,194.189 212.426,187.856 213,181.5C 214.097,179.947 215.43,178.614 217,177.5C 217.333,173.167 217.667,168.833 218,164.5C 222.832,154.342 224.832,143.675 224,132.5C 221.733,129.231 219.9,125.731 218.5,122C 219.64,117.18 220.64,112.347 221.5,107.5C 221.274,103.821 219.774,100.821 217,98.5C 213.469,83.4342 206.303,70.4342 195.5,59.5 Z"/></g>
<g><path style="opacity:1" fill="#f4f4f4" d="M 113.5,83.5 C 115.199,83.3398 116.866,83.5065 118.5,84C 110.795,88.908 105.628,95.7413 103,104.5C 100.957,106.208 99.2899,108.208 98,110.5C 96.1216,120.29 94.9549,130.123 94.5,140C 91.9362,140.45 90.4362,139.284 90,136.5C 88.9141,127.87 88.2474,119.203 88,110.5C 85.9404,107.714 84.4404,104.714 83.5,101.5C 92.1861,99.3182 99.5194,94.8182 105.5,88C 108.391,86.7258 111.058,85.2258 113.5,83.5 Z"/></g>
<g><path style="opacity:1" fill="#eed3b9" d="M 126.5,86.5 C 118.055,100.486 115.722,115.152 119.5,130.5C 115.245,131.402 110.911,132.402 106.5,133.5C 108.446,122.635 110.613,111.635 113,100.5C 115.048,93.3564 119.548,88.6897 126.5,86.5 Z"/></g>
<g><path style="opacity:1" fill="#689579" d="M 70.5,96.5 C 70.4606,97.5832 70.1272,98.5832 69.5,99.5C 72.637,103.809 75.137,108.476 77,113.5C 77.876,120.695 77.0426,127.695 74.5,134.5C 76.4031,137.911 78.9031,140.911 82,143.5C 81.0749,157.001 85.7415,168.335 96,177.5C 96.2632,182.017 97.2632,186.351 99,190.5C 101.846,192.257 104.512,194.257 107,196.5C 109.875,203.753 113.375,210.586 117.5,217C 115.89,223.827 113.89,230.493 111.5,237C 106.129,239.352 101.462,242.685 97.5,247C 84.6505,252.594 71.9839,258.427 59.5,264.5C 34.7203,229.92 27.887,191.92 39,150.5C 45.1694,129.808 55.6694,111.808 70.5,96.5 Z"/></g>
<g><path style="opacity:1" fill="#3e7652" d="M 769.5,101.5 C 789.849,100.217 809.849,102.217 829.5,107.5C 827.022,119.911 823.689,132.078 819.5,144C 817.5,144.667 815.5,144.667 813.5,144C 808.46,137.962 802.127,133.962 794.5,132C 772.793,127.838 752.793,131.838 734.5,144C 716.063,161.666 713.23,181.499 726,203.5C 734.885,213.695 746.052,219.861 759.5,222C 777.203,223.857 794.37,221.691 811,215.5C 809.529,226.218 807.029,236.718 803.5,247C 777.003,252.876 750.337,253.876 723.5,250C 701.841,246.097 684.674,235.264 672,217.5C 660.447,193.015 662.447,169.681 678,147.5C 696.615,124.768 720.448,110.601 749.5,105C 756.314,103.864 762.981,102.698 769.5,101.5 Z"/></g>
<g><path style="opacity:1" fill="#3e7652" d="M 360.5,102.5 C 385.649,102.01 410.649,102.51 435.5,104C 434.44,106.737 433.606,109.57 433,112.5C 427.705,113.81 423.705,116.81 421,121.5C 416.02,137.427 411.687,153.427 408,169.5C 428.333,153.833 448.667,138.167 469,122.5C 470.61,116.578 468.11,113.578 461.5,113.5C 461.958,109.834 462.958,106.334 464.5,103C 490.647,102.011 516.647,102.344 542.5,104C 541.58,106.835 540.58,109.668 539.5,112.5C 534.568,113.644 529.901,115.478 525.5,118C 503.553,135.453 481.886,153.12 460.5,171C 471.954,189.406 483.787,207.573 496,225.5C 501.273,233.049 508.439,237.383 517.5,238.5C 516.674,242.136 516.008,245.803 515.5,249.5C 499.83,249.667 484.163,249.5 468.5,249C 452.663,247 440.163,239.5 431,226.5C 421.419,213.007 412.086,199.34 403,185.5C 398.619,199.859 394.785,214.359 391.5,229C 391.667,230.167 391.833,231.333 392,232.5C 394.898,235.283 398.065,237.616 401.5,239.5C 400.309,242.637 399.309,245.803 398.5,249C 372.502,249.5 346.502,249.667 320.5,249.5C 321.583,245.915 322.249,242.249 322.5,238.5C 332.387,237.459 338.887,232.125 342,222.5C 350.822,191.544 359.489,160.544 368,129.5C 370.633,121.094 367.8,115.761 359.5,113.5C 358.667,109.792 359,106.126 360.5,102.5 Z"/></g>
<g><path style="opacity:1" fill="#3f7652" d="M 550.5,102.5 C 594.501,102.333 638.501,102.5 682.5,103C 680.587,115.503 677.754,128.003 674,140.5C 672.246,142.25 670.079,142.917 667.5,142.5C 666.349,137.851 663.349,135.018 658.5,134C 642.5,133.333 626.5,133.333 610.5,134C 607.622,142.679 605.288,151.512 603.5,160.5C 620.167,160.5 636.833,160.5 653.5,160.5C 651.128,172.655 648.128,184.655 644.5,196.5C 640.959,192.803 636.626,190.636 631.5,190C 619.153,189.167 606.82,189.334 594.5,190.5C 590.657,202.863 587.323,215.363 584.5,228C 585.355,233.792 588.689,237.459 594.5,239C 593.427,242.12 592.427,245.287 591.5,248.5C 569.167,249.833 546.833,249.833 524.5,248.5C 535.563,208.143 546.73,167.81 558,127.5C 558.79,124.366 558.457,121.366 557,118.5C 554.246,115.872 551.079,113.872 547.5,112.5C 548.506,109.137 549.506,105.804 550.5,102.5 Z"/></g>
<g><path style="opacity:1" fill="#e0e0e0" d="M 197.5,127.5 C 199.288,127.215 200.955,127.548 202.5,128.5C 201.332,130.217 199.665,130.884 197.5,130.5C 197.5,129.5 197.5,128.5 197.5,127.5 Z"/></g>
<g><path style="opacity:1" fill="#e3c9af" d="M 185.5,130.5 C 187.966,129.366 190.633,129.199 193.5,130C 194.747,131.494 194.747,132.994 193.5,134.5C 190.807,133.153 188.14,131.82 185.5,130.5 Z"/></g>
<g><path style="opacity:1" fill="#f9f9f9" d="M 197.5,178.5 C 199.924,176.08 200.091,173.413 198,170.5C 193.833,167 189.667,163.5 185.5,160C 182.264,157.365 178.597,156.365 174.5,157C 173.177,157.816 172.511,158.983 172.5,160.5C 174.479,164.425 173.479,167.259 169.5,169C 165.258,171.527 160.925,172.027 156.5,170.5C 155.199,169.118 154.366,167.452 154,165.5C 153.5,156.84 153.334,148.173 153.5,139.5C 155.199,139.34 156.866,139.506 158.5,140C 159.71,143.113 161.71,145.613 164.5,147.5C 167.174,146.501 167.841,144.834 166.5,142.5C 167,142.167 167.5,141.833 168,141.5C 174.249,144.066 180.416,143.732 186.5,140.5C 189.016,142.672 192.016,143.672 195.5,143.5C 194.556,147.722 193.223,151.722 191.5,155.5C 193.903,155.607 195.736,154.607 197,152.5C 199.768,146.845 201.102,140.845 201,134.5C 202.739,132.259 204.906,130.592 207.5,129.5C 208.086,129.709 208.586,130.043 209,130.5C 209.512,134.573 210.345,138.573 211.5,142.5C 213.272,141.73 214.272,140.397 214.5,138.5C 213.155,136.677 212.655,134.677 213,132.5C 214.667,131.167 216.333,131.167 218,132.5C 219.545,137.047 219.879,141.713 219,146.5C 216.412,153.675 214.412,161.008 213,168.5C 211.605,169.815 210.605,169.481 210,167.5C 208.956,168.623 208.29,169.956 208,171.5C 211.749,193.613 204.915,211.446 187.5,225C 185.432,225.687 183.432,225.52 181.5,224.5C 181.341,230.131 179.508,235.131 176,239.5C 175.505,241.473 175.338,243.473 175.5,245.5C 167.512,242.401 161.346,237.068 157,229.5C 157.21,222.634 157.044,215.801 156.5,209C 156.667,208.5 156.833,208 157,207.5C 161.259,212.823 162.592,211.823 161,204.5C 159.4,203.134 157.567,202.134 155.5,201.5C 156.364,199.803 157.697,198.637 159.5,198C 168.117,198.077 176.284,196.244 184,192.5C 185.285,192.95 186.452,193.617 187.5,194.5C 188.625,197.454 189.625,200.454 190.5,203.5C 190.833,203.333 191.167,203.167 191.5,203C 192.653,197.274 194.487,191.774 197,186.5C 197.497,183.854 197.664,181.187 197.5,178.5 Z"/></g>
<g><path style="opacity:1" fill="#dfc5ac" d="M 177.5,132.5 C 179.527,132.338 181.527,132.505 183.5,133C 186.167,134.667 188.833,136.333 191.5,138C 189.833,138.667 188.167,138.667 186.5,138C 183.148,135.402 179.481,134.902 175.5,136.5C 175.167,136.333 174.833,136.167 174.5,136C 175.71,134.961 176.71,133.794 177.5,132.5 Z"/></g>
<g><path style="opacity:1" fill="#eaeaea" d="M 100.5,139.5 C 102.167,139.5 103.833,139.5 105.5,139.5C 105.5,140.5 105.5,141.5 105.5,142.5C 103.833,142.5 102.167,142.5 100.5,142.5C 100.5,141.5 100.5,140.5 100.5,139.5 Z"/></g>
<g><path style="opacity:1" fill="#dac1a8" d="M 113.5,138.5 C 115.199,138.34 116.866,138.506 118.5,139C 115.916,142.451 112.582,144.617 108.5,145.5C 109.002,142.331 110.669,139.998 113.5,138.5 Z"/></g>
<g><path style="opacity:1" fill="#d7bea6" d="M 125.5,138.5 C 127.857,138.337 130.19,138.503 132.5,139C 132.957,139.414 133.291,139.914 133.5,140.5C 128.695,141.236 124.362,143.07 120.5,146C 119.167,146.667 117.833,146.667 116.5,146C 119.69,143.636 122.69,141.136 125.5,138.5 Z"/></g>
<g><path style="opacity:1" fill="#ead0b6" d="M 153.5,139.5 C 153.334,148.173 153.5,156.84 154,165.5C 154.366,167.452 155.199,169.118 156.5,170.5C 152.275,168.945 149.942,165.945 149.5,161.5C 150.166,154.847 150.666,148.181 151,141.5C 151.708,140.619 152.542,139.953 153.5,139.5 Z"/></g>
<g><path style="opacity:1" fill="#e2e2e2" d="M 95.5,145.5 C 96.5,145.5 97.5,145.5 98.5,145.5C 98.3075,149.013 98.9741,152.346 100.5,155.5C 100.167,156.167 99.8333,156.833 99.5,157.5C 95.8179,154.166 94.4846,150.166 95.5,145.5 Z"/></g>
<g><path style="opacity:1" fill="#f8f7f7" d="M 141.5,151.5 C 142.71,154.949 141.71,157.783 138.5,160C 135.666,161.6 132.666,162.766 129.5,163.5C 132.307,164.02 134.973,164.353 137.5,164.5C 136.961,166.505 136.295,168.505 135.5,170.5C 133.64,171.26 131.973,172.26 130.5,173.5C 128.45,171.763 126.617,169.763 125,167.5C 124.517,166.552 124.351,165.552 124.5,164.5C 123.041,164.567 121.708,164.234 120.5,163.5C 116.044,162.21 113.044,159.377 111.5,155C 111.645,154.228 111.978,153.561 112.5,153C 114.669,152.571 116.669,153.071 118.5,154.5C 120.437,151.489 123.104,149.323 126.5,148C 130.5,147.667 134.5,147.333 138.5,147C 139.416,146.626 140.25,146.126 141,145.5C 140.441,147.638 140.608,149.638 141.5,151.5 Z"/></g>
<g><path style="opacity:1" fill="#eed4ba" d="M 197.5,178.5 C 196.648,174.15 193.981,171.65 189.5,171C 186.5,168 183.5,165 180.5,162C 177.986,160.748 175.32,160.248 172.5,160.5C 172.511,158.983 173.177,157.816 174.5,157C 178.597,156.365 182.264,157.365 185.5,160C 189.667,163.5 193.833,167 198,170.5C 200.091,173.413 199.924,176.08 197.5,178.5 Z"/></g>
<g><path style="opacity:1" fill="#ecd4bc" d="M 137.5,164.5 C 134.973,164.353 132.307,164.02 129.5,163.5C 132.666,162.766 135.666,161.6 138.5,160C 141.71,157.783 142.71,154.949 141.5,151.5C 142.822,151.67 143.989,151.337 145,150.5C 145.667,152.167 145.667,153.833 145,155.5C 142.636,158.69 140.136,161.69 137.5,164.5 Z"/></g>
<g><path style="opacity:1" fill="#ecd1b7" d="M 120.5,163.5 C 121.708,164.234 123.041,164.567 124.5,164.5C 124.351,165.552 124.517,166.552 125,167.5C 126.617,169.763 128.45,171.763 130.5,173.5C 128.683,176.575 126.016,177.741 122.5,177C 118.938,173.942 115.938,170.442 113.5,166.5C 115.655,166.162 117.989,166.162 120.5,166.5C 120.5,165.5 120.5,164.5 120.5,163.5 Z"/></g>
<g><path style="opacity:1" fill="#ecd0b6" d="M 143.5,163.5 C 144.5,163.5 145.5,163.5 146.5,163.5C 146.575,166.206 146.908,168.873 147.5,171.5C 146.325,171.719 145.325,171.386 144.5,170.5C 143.626,168.253 143.292,165.92 143.5,163.5 Z"/></g>
<g><path style="opacity:1" fill="#f2f2f2" d="M 175.5,168.5 C 179.779,170.151 183.113,172.984 185.5,177C 187.025,178.009 188.692,178.509 190.5,178.5C 190.64,180.124 189.973,181.29 188.5,182C 181.167,182.333 173.833,182.667 166.5,183C 157.443,184.786 148.443,186.453 139.5,188C 139.043,187.586 138.709,187.086 138.5,186.5C 141.688,184.146 144.355,181.312 146.5,178C 152.486,178.24 158.486,178.24 164.5,178C 168.198,174.826 171.865,171.659 175.5,168.5 Z"/></g>
<g><path style="opacity:1" fill="#ebcfb5" d="M 125.5,185.5 C 126.833,185.5 128.167,185.5 129.5,185.5C 130.579,193.737 133.246,201.404 137.5,208.5C 138.325,209.386 139.325,209.719 140.5,209.5C 140.176,206.306 141.342,205.306 144,206.5C 145.484,210.447 146.65,214.447 147.5,218.5C 139.781,218.221 133.615,214.888 129,208.5C 125.685,203.538 123.185,198.205 121.5,192.5C 121.577,189.335 122.91,187.001 125.5,185.5 Z"/></g>
<g><path style="opacity:1" fill="#dfdfdf" d="M 164.5,189.5 C 168.514,189.334 172.514,189.501 176.5,190C 170.998,192.068 165.332,193.568 159.5,194.5C 157.519,194.563 155.852,193.896 154.5,192.5C 157.891,191.283 161.224,190.283 164.5,189.5 Z"/></g>
<g><path style="opacity:1" fill="#f8f8f8" d="M 222.5,222.5 C 224.552,228.23 226.052,234.23 227,240.5C 228.364,252.134 229.197,263.8 229.5,275.5C 215.178,276.915 200.845,278.248 186.5,279.5C 186.456,273.036 184.789,267.036 181.5,261.5C 185.776,264.313 190.11,267.146 194.5,270C 197.466,270.895 200.133,270.395 202.5,268.5C 202.376,267.893 202.043,267.56 201.5,267.5C 197.833,263.5 194.167,259.5 190.5,255.5C 192.958,255.227 194.625,256.227 195.5,258.5C 197.396,259.466 199.396,259.799 201.5,259.5C 201.635,257.446 200.968,255.779 199.5,254.5C 200.993,253.688 201.66,252.355 201.5,250.5C 200.918,246.845 200.418,243.178 200,239.5C 198.701,238.02 197.034,237.354 195,237.5C 191.803,238.244 188.636,238.744 185.5,239C 196.543,230.957 205.043,220.79 211,208.5C 213.148,209.977 214.482,211.977 215,214.5C 215.827,218.459 216.327,222.459 216.5,226.5C 215.521,239.035 213.687,251.368 211,263.5C 217.36,250.581 221.193,236.915 222.5,222.5 Z"/></g>
<g><path style="opacity:1" fill="#ebd0b6" d="M 229.5,275.5 C 229.197,263.8 228.364,252.134 227,240.5C 226.052,234.23 224.552,228.23 222.5,222.5C 222.5,220.833 222.5,219.167 222.5,217.5C 225.888,217.874 227.722,219.874 228,223.5C 232.09,240.295 234.923,257.295 236.5,274.5C 234.194,274.993 231.861,275.326 229.5,275.5 Z"/></g>
<g><path style="opacity:1" fill="#699377" d="M 260.5,277.5 C 257.021,282.324 252.687,285.99 247.5,288.5C 247.089,284.779 246.422,281.112 245.5,277.5C 248.028,276.834 250.694,276.168 253.5,275.5C 250.572,274.516 247.572,274.183 244.5,274.5C 243.844,267.745 242.678,261.078 241,254.5C 237.911,242.413 234.744,230.413 231.5,218.5C 235.961,218.79 238.795,221.123 240,225.5C 246.602,243.02 253.435,260.353 260.5,277.5 Z"/></g>
<g><path style="opacity:0.063" fill="#aaaaaa" d="M 251.5,224.5 C 249.219,224.077 247.552,224.744 246.5,226.5C 245.596,225.791 245.263,224.791 245.5,223.5C 247.735,223.205 249.735,223.539 251.5,224.5 Z"/></g>
<g><path style="opacity:0.904" fill="#545454" d="M 257.5,224.5 C 263.842,224.334 270.175,224.5 276.5,225C 278.382,225.198 280.048,225.698 281.5,226.5C 273.335,226.05 265.335,225.384 257.5,224.5 Z"/></g>
<g><path style="opacity:1" fill="#f0d5ba" d="M 141.5,246.5 C 135.857,242.532 130.19,238.532 124.5,234.5C 124.051,232.023 124.717,230.023 126.5,228.5C 134.053,234.702 142.386,239.702 151.5,243.5C 148.07,244.29 144.737,245.29 141.5,246.5 Z"/></g>
<g><path style="opacity:1" fill="#fafaf9" d="M 124.5,234.5 C 130.19,238.532 135.857,242.532 141.5,246.5C 141.5,246.833 141.5,247.167 141.5,247.5C 138.22,247.627 136.553,249.294 136.5,252.5C 136.85,256.754 138.016,260.754 140,264.5C 141.126,265.944 142.626,266.61 144.5,266.5C 147.878,265.958 151.211,265.291 154.5,264.5C 152.746,267.652 151.913,270.985 152,274.5C 154.266,270.958 156.766,267.625 159.5,264.5C 160.239,264.369 160.906,264.536 161.5,265C 158.667,271.49 156,277.99 153.5,284.5C 141.82,286.226 130.153,287.726 118.5,289C 116.695,283.676 115.695,278.176 115.5,272.5C 115.334,266.824 115.501,261.157 116,255.5C 121.176,267.505 129.342,276.839 140.5,283.5C 142.692,283.243 144.359,282.243 145.5,280.5C 139.942,273.738 135.109,266.405 131,258.5C 127.263,250.882 125.096,242.882 124.5,234.5 Z"/></g>
<g><path style="opacity:1" fill="#ecd2b9" d="M 145.5,280.5 C 144.359,282.243 142.692,283.243 140.5,283.5C 129.342,276.839 121.176,267.505 116,255.5C 115.501,261.157 115.334,266.824 115.5,272.5C 114.345,265.679 114.179,258.679 115,251.5C 115.271,247.87 116.938,246.87 120,248.5C 125.222,260.053 132.389,270.219 141.5,279C 142.745,279.791 144.078,280.291 145.5,280.5 Z"/></g>
<g><path style="opacity:1" fill="#efd4ba" d="M 141.5,247.5 C 141.191,252.267 141.691,256.934 143,261.5C 147.431,262.162 151.931,262.328 156.5,262C 155.934,262.995 155.267,263.828 154.5,264.5C 151.211,265.291 147.878,265.958 144.5,266.5C 142.626,266.61 141.126,265.944 140,264.5C 138.016,260.754 136.85,256.754 136.5,252.5C 136.553,249.294 138.22,247.627 141.5,247.5 Z"/></g>
<g><path style="opacity:1" fill="#65886f" d="M 106.5,304.5 C 101.5,302.336 96.833,299.669 92.5,296.5C 93.7498,296.423 94.5831,295.756 95,294.5C 97.3662,280.334 100.366,266.334 104,252.5C 105.257,250.254 107.09,248.921 109.5,248.5C 105.595,267.048 104.595,285.715 106.5,304.5 Z"/></g>
<g><path style="opacity:1" fill="#9b9b9b" d="M 190.5,255.5 C 193.287,254.523 196.287,254.19 199.5,254.5C 200.968,255.779 201.635,257.446 201.5,259.5C 199.396,259.799 197.396,259.466 195.5,258.5C 194.625,256.227 192.958,255.227 190.5,255.5 Z"/></g>
<g><path style="opacity:1" fill="#ead0b7" d="M 201.5,267.5 C 202.043,267.56 202.376,267.893 202.5,268.5C 200.133,270.395 197.466,270.895 194.5,270C 190.11,267.146 185.776,264.313 181.5,261.5C 180.386,260.115 179.386,258.615 178.5,257C 186.078,259.291 193.078,262.958 199.5,268C 200.437,268.692 201.103,268.525 201.5,267.5 Z"/></g>
<g><path style="opacity:1" fill="#e9cfb7" d="M 153.5,284.5 C 156,277.99 158.667,271.49 161.5,265C 160.906,264.536 160.239,264.369 159.5,264.5C 161.199,261.804 163.533,259.804 166.5,258.5C 167.614,259.723 167.781,261.056 167,262.5C 164.667,268.5 162.333,274.5 160,280.5C 158.429,282.923 156.263,284.256 153.5,284.5 Z"/></g>
<g><path style="opacity:0.871" fill="#f1d6bb" d="M 83.5,261.5 C 85.4817,261.995 87.4817,262.495 89.5,263C 90.0968,264.062 90.4302,265.228 90.5,266.5C 87.8736,274.339 85.8736,282.339 84.5,290.5C 82.3702,288.873 80.3702,287.04 78.5,285C 80.2605,277.794 82.2605,270.628 84.5,263.5C 84.1373,262.817 83.8039,262.15 83.5,261.5 Z"/></g>
<g><path style="opacity:1" fill="#e1e1e1" d="M 172.5,273.5 C 173.117,273.611 173.617,273.944 174,274.5C 174.497,276.81 174.663,279.143 174.5,281.5C 173.022,281.762 171.689,281.429 170.5,280.5C 171.577,278.271 172.244,275.937 172.5,273.5 Z"/></g>
<g><path style="opacity:1" fill="#6c9479" d="M 242.5,277.5 C 241.391,278.29 240.058,278.79 238.5,279C 240.29,284.427 240.957,289.927 240.5,295.5C 238.5,296.833 236.5,298.167 234.5,299.5C 233.914,299.291 233.414,298.957 233,298.5C 231.51,292.551 230.344,286.551 229.5,280.5C 227.833,280.5 226.167,280.5 224.5,280.5C 230.196,278.439 236.196,277.439 242.5,277.5 Z"/></g>
<g><path style="opacity:1" fill="#6d967a" d="M 222.5,280.5 C 223.445,287.893 224.778,295.227 226.5,302.5C 226.167,303.167 225.833,303.833 225.5,304.5C 222.607,305.74 219.773,307.074 217,308.5C 215.227,300.195 213.56,291.862 212,283.5C 210.989,282.663 209.822,282.33 208.5,282.5C 212.881,280.789 217.547,280.123 222.5,280.5 Z"/></g>
<g><path style="opacity:1" fill="#689579" d="M 205.5,282.5 C 206.785,291.331 208.119,300.164 209.5,309C 209.167,309.833 208.833,310.667 208.5,311.5C 181.335,320.239 154.002,320.739 126.5,313C 120.946,311.1 115.613,308.934 110.5,306.5C 140.809,293.672 172.475,285.672 205.5,282.5 Z"/></g>
</svg>
