<?xml version="1.0" encoding="UTF-8"?>
<!DOCTYPE svg PUBLIC "-//W3C//DTD SVG 1.1//EN" "http://www.w3.org/Graphics/SVG/1.1/DTD/svg11.dtd">
<svg xmlns="http://www.w3.org/2000/svg" version="1.1" width="1280px" height="437px" style="shape-rendering:geometricPrecision; text-rendering:geometricPrecision; image-rendering:optimizeQuality; fill-rule:evenodd; clip-rule:evenodd" xmlns:xlink="http://www.w3.org/1999/xlink">
<g><path style="opacity:1" fill="#3e7651" d="M 1079.5,76.5 C 1118.75,73.2615 1155.75,80.7615 1190.5,99C 1224.83,121.452 1243.99,153.285 1248,194.5C 1250.75,224.597 1246.41,253.597 1235,281.5C 1218.66,315.162 1192.5,337.329 1156.5,348C 1122.73,356.706 1088.73,357.706 1054.5,351C 990.234,334.726 954.401,293.559 947,227.5C 941.109,153.111 973.609,104.945 1044.5,83C 1056.19,80.166 1067.85,77.9994 1079.5,76.5 Z M 1084.5,120.5 C 1108.45,117.405 1130.12,122.905 1149.5,137C 1156.65,143.146 1161.81,150.646 1165,159.5C 1177.18,200.103 1175.52,240.103 1160,279.5C 1144.37,304.901 1121.53,316.401 1091.5,314C 1063.04,309.871 1042.87,294.704 1031,268.5C 1017.96,228.018 1019.96,188.352 1037,149.5C 1044.85,137.99 1055.35,129.824 1068.5,125C 1073.96,123.473 1079.29,121.973 1084.5,120.5 Z"/></g>
<g><path style="opacity:1" fill="#3e7651" d="M 463.5,77.5 C 501.14,74.4381 536.806,81.2715 570.5,98C 605.805,118.739 625.972,149.573 631,190.5C 636.1,230.259 628.433,267.259 608,301.5C 582.862,333.826 549.695,351.659 508.5,355C 473.667,359.4 440,355.066 407.5,342C 364.416,321.221 339.25,287.054 332,239.5C 325.22,201.831 331.887,166.831 352,134.5C 370.548,109.961 394.715,93.4606 424.5,85C 437.457,81.5074 450.457,79.0074 463.5,77.5 Z M 478.5,120.5 C 502.45,119.978 522.95,127.978 540,144.5C 546.18,152.864 550.18,162.197 552,172.5C 559.273,206.608 557.606,240.275 547,273.5C 530.95,306.111 504.784,319.611 468.5,314C 441.919,307.748 423.752,291.915 414,266.5C 402.843,229.013 404.176,192.013 418,155.5C 427.707,137.812 442.54,126.979 462.5,123C 467.988,122.226 473.321,121.393 478.5,120.5 Z"/></g>
<g><path style="opacity:1" fill="#3e7651" d="M 651.5,89.5 C 744.835,89.4982 838.168,89.8316 931.5,90.5C 931.286,123.509 931.619,156.509 932.5,189.5C 919.5,189.5 906.5,189.5 893.5,189.5C 895.471,170.468 890.471,153.635 878.5,139C 869.147,131.664 858.481,127.664 846.5,127C 839.842,126.5 833.175,126.334 826.5,126.5C 825.708,188.163 825.375,249.83 825.5,311.5C 842.845,311.611 860.178,311.277 877.5,310.5C 877.5,323.167 877.5,335.833 877.5,348.5C 819.836,347.836 762.169,347.503 704.5,347.5C 704.5,335.5 704.5,323.5 704.5,311.5C 721.833,311.5 739.167,311.5 756.5,311.5C 756.185,249.481 756.519,187.481 757.5,125.5C 739.934,124.423 723.601,128.256 708.5,137C 698.641,145.213 692.808,155.713 691,168.5C 689.913,175.46 689.413,182.46 689.5,189.5C 677.167,189.5 664.833,189.5 652.5,189.5C 651.688,156.173 651.355,122.84 651.5,89.5 Z"/></g>
<g><path style="opacity:1" fill="#3e7651" d="M 34.5,90.5 C 128.169,90.3554 221.836,90.6887 315.5,91.5C 315.5,124.5 315.5,157.5 315.5,190.5C 302.833,190.5 290.167,190.5 277.5,190.5C 278.64,143.977 255.973,122.977 209.5,127.5C 209.5,189.167 209.5,250.833 209.5,312.5C 226.84,312.449 244.173,312.116 261.5,311.5C 261.5,324.167 261.5,336.833 261.5,349.5C 203.837,348.694 146.17,348.361 88.5,348.5C 88.5,336.5 88.5,324.5 88.5,312.5C 105.833,312.5 123.167,312.5 140.5,312.5C 140.5,250.5 140.5,188.5 140.5,126.5C 128.62,126.357 116.953,127.857 105.5,131C 86.3028,138.554 75.8028,152.72 74,173.5C 73.5006,179.157 73.3339,184.824 73.5,190.5C 60.8333,190.5 48.1667,190.5 35.5,190.5C 35.599,157.161 35.2657,123.828 34.5,90.5 Z"/></g>
</svg>
