<?xml version="1.0" encoding="UTF-8"?>
<!DOCTYPE svg PUBLIC "-//W3C//DTD SVG 1.1//EN" "http://www.w3.org/Graphics/SVG/1.1/DTD/svg11.dtd">
<svg xmlns="http://www.w3.org/2000/svg" version="1.1" width="1280px" height="750px" style="shape-rendering:geometricPrecision; text-rendering:geometricPrecision; image-rendering:optimizeQuality; fill-rule:evenodd; clip-rule:evenodd" xmlns:xlink="http://www.w3.org/1999/xlink">
<g><path style="opacity:1" fill="#689779" d="M 414.5,3.5 C 416.5,3.5 418.5,3.5 420.5,3.5C 420.333,62.5009 420.5,121.501 421,180.5C 423.889,205.271 433.555,226.937 450,245.5C 561.468,219.793 673.635,216.626 786.5,236C 801.19,238.465 815.69,241.632 830,245.5C 846.151,227.191 855.818,205.857 859,181.5C 859.5,122.168 859.667,62.8343 859.5,3.5C 919.214,12.3452 976.88,28.5119 1032.5,52C 1059.15,62.827 1084.82,75.4937 1109.5,90C 1111.01,91.4733 1111.67,93.3066 1111.5,95.5C 1108.72,123.72 1099.22,149.387 1083,172.5C 1064.79,197.708 1042.96,219.208 1017.5,237C 992.587,253.963 966.253,268.629 938.5,281C 988.406,302.181 1031.91,332.347 1069,371.5C 1088.37,393.895 1101.7,419.561 1109,448.5C 1110.71,456.097 1111.37,463.764 1111,471.5C 1095.02,481.239 1078.52,490.072 1061.5,498C 997.268,527.466 930.268,547.966 860.5,559.5C 859.667,499.836 859.167,440.169 859,380.5C 855.984,357.143 846.984,336.476 832,318.5C 831.107,317.919 830.107,317.585 829,317.5C 733.053,339.451 636.22,344.617 538.5,333C 508.567,329.178 478.9,324.178 449.5,318C 435.41,334.349 426.243,353.182 422,374.5C 420.867,436.148 420.034,497.814 419.5,559.5C 337.787,545.762 260.12,519.929 186.5,482C 180.833,478.5 175.167,475 169.5,471.5C 169.251,454.909 172.418,438.909 179,423.5C 192.332,394.03 211.166,368.53 235.5,347C 267.507,319.979 302.84,297.979 341.5,281C 294.943,261.324 253.777,233.824 218,198.5C 195.7,175.578 180.366,148.578 172,117.5C 169.846,108.939 168.846,100.273 169,91.5C 184.478,81.5092 200.644,72.6758 217.5,65C 280.589,35.9129 346.255,15.4129 414.5,3.5 Z M 626.5,243.5 C 672.445,241.753 716.778,249.253 759.5,266C 769.324,270.745 778.99,275.745 788.5,281C 749.318,303.835 706.985,316.168 661.5,318C 611.654,321.581 563.654,313.914 517.5,295C 508.682,291.094 500.348,286.427 492.5,281C 520.895,263.867 551.562,252.867 584.5,248C 598.603,246.024 612.603,244.524 626.5,243.5 Z"/></g>
<g><path style="opacity:1" fill="#3e7651" d="M 6.5,666.5 C 13.175,666.334 19.8417,666.5 26.5,667C 27.3081,667.308 27.9747,667.808 28.5,668.5C 29.3192,685.123 29.8192,701.789 30,718.5C 31.2506,721.381 33.4173,723.214 36.5,724C 47.1667,724.667 57.8333,724.667 68.5,724C 72.5271,723.573 75.0271,721.406 76,717.5C 76.3333,701.167 76.6667,684.833 77,668.5C 77.7504,667.874 78.5838,667.374 79.5,667C 86.9402,666.072 94.2735,666.406 101.5,668C 102.659,686.426 102.825,704.926 102,723.5C 100.012,735.323 93.1788,742.49 81.5,745C 62.5,745.667 43.5,745.667 24.5,745C 13.0272,742.861 6.19382,736.027 4,724.5C 3.33333,705.833 3.33333,687.167 4,668.5C 4.9947,667.934 5.82803,667.267 6.5,666.5 Z"/></g>
<g><path style="opacity:1" fill="#3e7651" d="M 113.5,666.5 C 124.505,666.333 135.505,666.5 146.5,667C 152.258,670.754 157.425,675.254 162,680.5C 171.366,694.556 181.699,707.89 193,720.5C 193.333,703.167 193.667,685.833 194,668.5C 194.5,668 195,667.5 195.5,667C 202.883,666.201 210.217,666.368 217.5,667.5C 218.251,668.376 218.751,669.376 219,670.5C 219.5,695.498 219.667,720.498 219.5,745.5C 206.829,745.667 194.162,745.5 181.5,745C 180.167,744.333 178.833,743.667 177.5,743C 164.044,725.876 150.211,709.042 136,692.5C 135.667,709.833 135.333,727.167 135,744.5C 127.58,745.647 120.08,745.813 112.5,745C 111.339,719.572 111.172,694.072 112,668.5C 112.717,667.956 113.217,667.289 113.5,666.5 Z"/></g>
<g><path style="opacity:1" fill="#3e7651" d="M 227.5,666.5 C 254.533,666.063 281.533,666.563 308.5,668C 319.382,670.339 326.215,676.839 329,687.5C 329.667,700.5 329.667,713.5 329,726.5C 326.752,737.08 320.252,743.247 309.5,745C 292.823,745.833 276.157,745.666 259.5,744.5C 257.333,740.167 255.167,735.833 253,731.5C 252.501,736.155 252.334,740.821 252.5,745.5C 244.167,745.5 235.833,745.5 227.5,745.5C 227.5,719.167 227.5,692.833 227.5,666.5 Z M 252.5,688.5 C 268.238,688.047 283.904,688.547 299.5,690C 303.403,695.1 305.07,700.933 304.5,707.5C 304.78,712.07 303.946,716.404 302,720.5C 300.2,722.317 298.034,723.484 295.5,724C 281.171,724.5 266.837,724.667 252.5,724.5C 252.5,712.5 252.5,700.5 252.5,688.5 Z"/></g>
<g><path style="opacity:1" fill="#3e7651" d="M 440.5,666.5 C 465.836,666.333 491.169,666.5 516.5,667C 527.154,667.32 532.988,672.82 534,683.5C 534.667,689.833 534.667,696.167 534,702.5C 533.1,707.737 530.266,711.571 525.5,714C 529.058,715.892 531.558,718.725 533,722.5C 534.515,729.767 534.848,737.101 534,744.5C 525.579,745.649 517.079,745.816 508.5,745C 507.7,740.92 507.2,736.753 507,732.5C 506.654,730.152 505.487,728.319 503.5,727C 492.152,726.832 480.819,726.332 469.5,725.5C 467.079,721.66 464.912,717.66 463,713.5C 462.81,723.88 462.31,734.213 461.5,744.5C 452.833,745.833 444.167,745.833 435.5,744.5C 434.344,720.543 434.177,696.543 435,672.5C 435.683,669.321 437.516,667.321 440.5,666.5 Z M 462.5,688.5 C 476.504,688.333 490.504,688.5 504.5,689C 505.416,689.374 506.25,689.874 507,690.5C 508.845,694.191 508.845,697.857 507,701.5C 505.352,702.717 503.519,703.55 501.5,704C 488.171,704.5 474.837,704.667 461.5,704.5C 461.218,699.073 461.551,693.74 462.5,688.5 Z"/></g>
<g><path style="opacity:1" fill="#3e7651" d="M 715.5,666.5 C 740.836,666.333 766.169,666.5 791.5,667C 798.384,666.856 803.55,669.689 807,675.5C 810.982,686.076 811.315,696.743 808,707.5C 805.795,710.04 803.295,712.207 800.5,714C 807.63,718.701 810.964,725.367 810.5,734C 809.54,737.73 809.207,741.563 809.5,745.5C 800.808,745.831 792.141,745.498 783.5,744.5C 783.02,738.871 782.02,733.371 780.5,728C 768.581,726.873 756.581,726.039 744.5,725.5C 742.333,721.167 740.167,716.833 738,712.5C 737.667,723.167 737.333,733.833 737,744.5C 728.251,745.484 719.418,745.817 710.5,745.5C 710.333,720.498 710.5,695.498 711,670.5C 711.907,668.391 713.407,667.058 715.5,666.5 Z M 738.5,688.5 C 752.171,688.333 765.837,688.5 779.5,689C 782.516,690.529 783.849,693.029 783.5,696.5C 783.562,700.609 781.562,703.109 777.5,704C 764.171,704.5 750.837,704.667 737.5,704.5C 737.218,699.073 737.551,693.74 738.5,688.5 Z"/></g>
<g><path style="opacity:1" fill="#3e7651" d="M 820.5,666.5 C 830.506,666.334 840.506,666.5 850.5,667C 854.843,668.01 858.01,670.51 860,674.5C 866.745,688.323 873.745,701.99 881,715.5C 888.843,701.815 896.177,687.815 903,673.5C 904.833,671.667 906.667,669.833 908.5,668C 914.589,666.899 920.755,666.399 927,666.5C 932.549,666.522 938.049,666.856 943.5,667.5C 944.192,668.025 944.692,668.692 945,669.5C 945.824,694.543 945.657,719.543 944.5,744.5C 936.942,745.813 929.442,745.813 922,744.5C 920.696,728.258 920.029,711.925 920,695.5C 910.707,711.919 901.54,728.419 892.5,745C 884.833,745.667 877.167,745.667 869.5,745C 860.206,728.247 851.04,711.413 842,694.5C 841.667,710.833 841.333,727.167 841,743.5C 837.429,744.792 833.595,745.458 829.5,745.5C 825.833,745.333 822.167,745.167 818.5,745C 817.874,744.25 817.374,743.416 817,742.5C 816.333,718.5 816.333,694.5 817,670.5C 817.69,668.65 818.856,667.316 820.5,666.5 Z"/></g>
<g><path style="opacity:1" fill="#3e7651" d="M 974.5,666.5 C 996.169,666.333 1017.84,666.5 1039.5,667C 1048.6,668.096 1054.76,672.929 1058,681.5C 1060.96,696.426 1061.3,711.426 1059,726.5C 1057.64,738.862 1050.81,745.362 1038.5,746C 1017.17,746.667 995.833,746.667 974.5,746C 963.624,745.127 957.124,739.294 955,728.5C 953.48,715.538 953.147,702.538 954,689.5C 955.453,676.887 962.286,669.221 974.5,666.5 Z M 988.5,687.5 C 1001.91,687.056 1015.24,687.556 1028.5,689C 1031.18,691.194 1032.68,694.027 1033,697.5C 1033.97,705.319 1033.3,712.986 1031,720.5C 1028.81,723.181 1025.97,724.681 1022.5,725C 1012.5,725.667 1002.5,725.667 992.5,725C 986.174,725.009 982.674,721.842 982,715.5C 981.104,707.754 981.437,700.087 983,692.5C 984.73,690.598 986.563,688.931 988.5,687.5 Z"/></g>
<g><path style="opacity:1" fill="#3e7651" d="M 1070.5,666.5 C 1077.17,666.334 1083.84,666.5 1090.5,667C 1091.42,667.374 1092.25,667.874 1093,668.5C 1093.33,684.833 1093.67,701.167 1094,717.5C 1094.97,721.406 1097.47,723.573 1101.5,724C 1112.17,724.667 1122.83,724.667 1133.5,724C 1136.58,723.214 1138.75,721.381 1140,718.5C 1140.18,701.789 1140.68,685.123 1141.5,668.5C 1142.03,667.808 1142.69,667.308 1143.5,667C 1150.94,666.072 1158.27,666.406 1165.5,668C 1166.66,686.76 1166.83,705.593 1166,724.5C 1163.83,736 1157,742.833 1145.5,745C 1126.5,745.667 1107.5,745.667 1088.5,745C 1076.21,741.931 1069.38,734.098 1068,721.5C 1067.33,704.167 1067.33,686.833 1068,669.5C 1068.7,668.309 1069.53,667.309 1070.5,666.5 Z"/></g>
<g><path style="opacity:1" fill="#3e7651" d="M 1181.5,666.5 C 1206.84,666.333 1232.17,666.5 1257.5,667C 1267.7,667.203 1273.54,672.37 1275,682.5C 1275.67,689.167 1275.67,695.833 1275,702.5C 1274.1,707.737 1271.27,711.571 1266.5,714C 1270.06,715.892 1272.56,718.725 1274,722.5C 1275.51,729.767 1275.85,737.101 1275,744.5C 1266.58,745.649 1258.08,745.816 1249.5,745C 1248.7,740.92 1248.2,736.753 1248,732.5C 1247.65,730.152 1246.49,728.319 1244.5,727C 1233.15,726.832 1221.82,726.332 1210.5,725.5C 1208.08,721.66 1205.91,717.66 1204,713.5C 1203.81,723.88 1203.31,734.213 1202.5,744.5C 1193.83,745.833 1185.17,745.833 1176.5,744.5C 1175.34,720.543 1175.18,696.543 1176,672.5C 1176.68,669.321 1178.52,667.321 1181.5,666.5 Z M 1203.5,688.5 C 1217.5,688.333 1231.5,688.5 1245.5,689C 1246.42,689.374 1247.25,689.874 1248,690.5C 1249.84,694.191 1249.84,697.857 1248,701.5C 1246.35,702.717 1244.52,703.55 1242.5,704C 1229.17,704.5 1215.84,704.667 1202.5,704.5C 1202.22,699.073 1202.55,693.74 1203.5,688.5 Z"/></g>
<g><path style="opacity:1" fill="#3e7651" d="M 350.5,667.5 C 374.836,667.333 399.169,667.5 423.5,668C 424.126,668.75 424.626,669.584 425,670.5C 425.667,675.167 425.667,679.833 425,684.5C 424.626,685.416 424.126,686.25 423.5,687C 404.833,687.333 386.167,687.667 367.5,688C 365.09,688.758 364.09,690.425 364.5,693C 364.559,694.436 364.892,695.769 365.5,697C 381.51,697.167 397.51,697.667 413.5,698.5C 415.667,702.833 417.833,707.167 420,711.5C 420.72,713.112 420.554,714.612 419.5,716C 402.823,716.833 386.157,716.666 369.5,715.5C 367.667,711.833 365.833,708.167 364,704.5C 363.28,711.536 363.447,718.536 364.5,725.5C 383.836,725.333 403.17,725.5 422.5,726C 423.931,726.465 425.097,727.299 426,728.5C 426.667,733.5 426.667,738.5 426,743.5C 425.5,744.667 424.667,745.5 423.5,746C 399.5,746.667 375.5,746.667 351.5,746C 344.667,744.5 340.5,740.333 339,733.5C 338.333,715.5 338.333,697.5 339,679.5C 340.683,673.319 344.517,669.319 350.5,667.5 Z"/></g>
<g><path style="opacity:1" fill="#3e7651" d="M 629.5,667.5 C 639.172,667.334 648.839,667.5 658.5,668C 661.562,669.061 664.062,670.894 666,673.5C 678.08,695.994 690.413,718.327 703,740.5C 704.128,742.345 704.628,744.345 704.5,746.5C 695.143,746.832 685.81,746.498 676.5,745.5C 674.04,741.414 671.707,737.247 669.5,733C 658.505,732.5 647.505,732.333 636.5,732.5C 634.971,727.75 633.137,723.084 631,718.5C 625.328,727.174 620.161,736.174 615.5,745.5C 606.19,746.498 596.857,746.832 587.5,746.5C 588.428,742.638 589.928,738.971 592,735.5C 604.778,712.94 617.278,690.273 629.5,667.5 Z M 645.5,690.5 C 646.376,690.369 647.043,690.702 647.5,691.5C 650.912,698.658 654.578,705.658 658.5,712.5C 650.187,713.665 641.853,713.832 633.5,713C 637.759,705.592 641.759,698.092 645.5,690.5 Z"/></g>
</svg>
